<mxfile host="Electron" agent="Mozilla/5.0 (Windows NT 10.0; Win64; x64) AppleWebKit/537.36 (KHTML, like Gecko) draw.io/26.1.1 Chrome/132.0.6834.210 Electron/34.3.3 Safari/537.36" version="26.1.1">
  <diagram name="Page-1" id="Pm9EyPxCyrsyN_fbIw_H">
    <mxGraphModel dx="4226" dy="2658" grid="1" gridSize="10" guides="1" tooltips="1" connect="1" arrows="1" fold="1" page="1" pageScale="1" pageWidth="1169" pageHeight="827" math="0" shadow="0" adaptiveColors="simple">
      <root>
        <mxCell id="0" />
        <mxCell id="1" parent="0" />
        <mxCell id="A6AokKThXicrLh0-pZuk-423" value="2 | 1 | 0" style="whiteSpace=wrap;strokeWidth=2;strokeColor=#00CC00;" vertex="1" parent="1">
          <mxGeometry x="7307.25" y="653" width="80" height="30" as="geometry" />
        </mxCell>
        <mxCell id="A6AokKThXicrLh0-pZuk-424" value="-2 | 0 | 2" style="whiteSpace=wrap;strokeWidth=2;strokeColor=#0066CC;" vertex="1" parent="1">
          <mxGeometry x="8157.25" y="653" width="80" height="30" as="geometry" />
        </mxCell>
        <mxCell id="A6AokKThXicrLh0-pZuk-425" value="0 | 1 | -2" style="whiteSpace=wrap;strokeWidth=2;strokeColor=#00CC00;" vertex="1" parent="1">
          <mxGeometry x="8340.25" y="653" width="80" height="30" as="geometry" />
        </mxCell>
        <mxCell id="A6AokKThXicrLh0-pZuk-426" value="-1 | 100 | 1" style="whiteSpace=wrap;strokeWidth=2;strokeColor=#0066CC;" vertex="1" parent="1">
          <mxGeometry x="7707.25" y="437" width="80" height="30" as="geometry" />
        </mxCell>
        <mxCell id="A6AokKThXicrLh0-pZuk-427" value="0 | 00100 | 0" style="whiteSpace=wrap;strokeWidth=2;strokeColor=#0066CC;" vertex="1" parent="1">
          <mxGeometry x="7838.25" y="237" width="80" height="30" as="geometry" />
        </mxCell>
        <mxCell id="A6AokKThXicrLh0-pZuk-428" value="0 | 0 | 2" style="whiteSpace=wrap;strokeWidth=2;strokeColor=#0066CC;" vertex="1" parent="1">
          <mxGeometry x="7887.25" y="653" width="80" height="30" as="geometry" />
        </mxCell>
        <mxCell id="A6AokKThXicrLh0-pZuk-429" value="0 | 0 | 0" style="whiteSpace=wrap;strokeWidth=2;strokeColor=#FFFF00;" vertex="1" parent="1">
          <mxGeometry x="7168.25" y="653" width="80" height="30" as="geometry" />
        </mxCell>
        <mxCell id="A6AokKThXicrLh0-pZuk-430" value="1 | 110 | -1" style="whiteSpace=wrap;strokeWidth=2;strokeColor=#0066CC;" vertex="1" parent="1">
          <mxGeometry x="7207.25" y="437" width="80" height="30" as="geometry" />
        </mxCell>
        <mxCell id="A6AokKThXicrLh0-pZuk-431" value="-1 | 110 | 1" style="whiteSpace=wrap;strokeWidth=2;strokeColor=#0066CC;" vertex="1" parent="1">
          <mxGeometry x="8197.25" y="437" width="80" height="30" as="geometry" />
        </mxCell>
        <mxCell id="A6AokKThXicrLh0-pZuk-432" value="0 | 10 | -1" style="whiteSpace=wrap;strokeWidth=2;strokeColor=#990099;" vertex="1" parent="1">
          <mxGeometry x="8340.25" y="549" width="80" height="30" as="geometry" />
        </mxCell>
        <mxCell id="A6AokKThXicrLh0-pZuk-433" value="0 | 11 | 1" style="whiteSpace=wrap;strokeWidth=2;strokeColor=#990099;" vertex="1" parent="1">
          <mxGeometry x="7887.25" y="549" width="80" height="30" as="geometry" />
        </mxCell>
        <mxCell id="A6AokKThXicrLh0-pZuk-434" value="1 | 1100 | 0" style="whiteSpace=wrap;strokeWidth=2;strokeColor=#990099;" vertex="1" parent="1">
          <mxGeometry x="7297.25" y="341" width="80" height="30" as="geometry" />
        </mxCell>
        <mxCell id="A6AokKThXicrLh0-pZuk-435" value="-1 | 0010 | 0" style="whiteSpace=wrap;strokeWidth=2;strokeColor=#990099;" vertex="1" parent="1">
          <mxGeometry x="8197.25" y="341" width="80" height="30" as="geometry" />
        </mxCell>
        <mxCell id="A6AokKThXicrLh0-pZuk-436" value="-2 | 11 | 1" style="whiteSpace=wrap;strokeWidth=2;strokeColor=#990099;" vertex="1" parent="1">
          <mxGeometry x="8157.25" y="549" width="80" height="30" as="geometry" />
        </mxCell>
        <mxCell id="A6AokKThXicrLh0-pZuk-437" value="-1 | 001 | 1" style="whiteSpace=wrap;strokeWidth=2;strokeColor=#0066CC;" vertex="1" parent="1">
          <mxGeometry x="7798.25" y="437" width="80" height="30" as="geometry" />
        </mxCell>
        <mxCell id="A6AokKThXicrLh0-pZuk-438" value="-2 | 1 | 2" style="whiteSpace=wrap;strokeWidth=2;strokeColor=#0066CC;" vertex="1" parent="1">
          <mxGeometry x="7798.25" y="653" width="80" height="30" as="geometry" />
        </mxCell>
        <mxCell id="A6AokKThXicrLh0-pZuk-439" value="-1 | 001 | -1" style="whiteSpace=wrap;strokeWidth=2;strokeColor=#0066CC;" vertex="1" parent="1">
          <mxGeometry x="7977.25" y="437" width="80" height="30" as="geometry" />
        </mxCell>
        <mxCell id="A6AokKThXicrLh0-pZuk-440" value="1 | 000 | 1" style="whiteSpace=wrap;strokeWidth=2;strokeColor=#0066CC;" vertex="1" parent="1">
          <mxGeometry x="7387.25" y="437" width="80" height="30" as="geometry" />
        </mxCell>
        <mxCell id="A6AokKThXicrLh0-pZuk-441" value="-2 | 0 | 0" style="whiteSpace=wrap;strokeWidth=2;strokeColor=#0066CC;" vertex="1" parent="1">
          <mxGeometry x="7977.25" y="653" width="80" height="30" as="geometry" />
        </mxCell>
        <mxCell id="A6AokKThXicrLh0-pZuk-442" value="1 | 0011 | 0" style="whiteSpace=wrap;strokeWidth=2;strokeColor=#990099;" vertex="1" parent="1">
          <mxGeometry x="7477.25" y="341" width="80" height="30" as="geometry" />
        </mxCell>
        <mxCell id="A6AokKThXicrLh0-pZuk-443" value="0 | 00 | -1" style="whiteSpace=wrap;strokeWidth=2;strokeColor=#990099;" vertex="1" parent="1">
          <mxGeometry x="7617.25" y="549" width="80" height="30" as="geometry" />
        </mxCell>
        <mxCell id="A6AokKThXicrLh0-pZuk-444" value="1 | 111 | 1" style="whiteSpace=wrap;strokeWidth=2;strokeColor=#0066CC;" vertex="1" parent="1">
          <mxGeometry x="7297.25" y="437" width="80" height="30" as="geometry" />
        </mxCell>
        <mxCell id="A6AokKThXicrLh0-pZuk-445" value="0 | 0 | -2" style="whiteSpace=wrap;strokeWidth=2;strokeColor=#00CC00;" vertex="1" parent="1">
          <mxGeometry x="8427.25" y="653" width="80" height="30" as="geometry" />
        </mxCell>
        <mxCell id="A6AokKThXicrLh0-pZuk-446" value="-2 | 10 | 1" style="whiteSpace=wrap;strokeWidth=2;strokeColor=#990099;" vertex="1" parent="1">
          <mxGeometry x="7707.25" y="549" width="80" height="30" as="geometry" />
        </mxCell>
        <mxCell id="A6AokKThXicrLh0-pZuk-447" value="0 | 01 | -1" style="whiteSpace=wrap;strokeWidth=2;strokeColor=#990099;" vertex="1" parent="1">
          <mxGeometry x="8427.25" y="549" width="80" height="30" as="geometry" />
        </mxCell>
        <mxCell id="A6AokKThXicrLh0-pZuk-448" value="-1 | 000 | -1" style="whiteSpace=wrap;strokeWidth=2;strokeColor=#0066CC;" vertex="1" parent="1">
          <mxGeometry x="8377.25" y="437" width="80" height="30" as="geometry" />
        </mxCell>
        <mxCell id="A6AokKThXicrLh0-pZuk-449" value="0 | 00 | 1" style="whiteSpace=wrap;strokeWidth=2;strokeColor=#990099;" vertex="1" parent="1">
          <mxGeometry x="8252.25" y="549" width="80" height="30" as="geometry" />
        </mxCell>
        <mxCell id="A6AokKThXicrLh0-pZuk-450" value="-2 | 1 | 0" style="whiteSpace=wrap;strokeWidth=2;strokeColor=#0066CC;" vertex="1" parent="1">
          <mxGeometry x="7712.25" y="653" width="80" height="30" as="geometry" />
        </mxCell>
        <mxCell id="A6AokKThXicrLh0-pZuk-451" value="2 | 11 | -1" style="whiteSpace=wrap;strokeWidth=2;strokeColor=#990099;" vertex="1" parent="1">
          <mxGeometry x="7527.25" y="549" width="80" height="30" as="geometry" />
        </mxCell>
        <mxCell id="A6AokKThXicrLh0-pZuk-452" value="1 | 001 | -1" style="whiteSpace=wrap;strokeWidth=2;strokeColor=#0066CC;" vertex="1" parent="1">
          <mxGeometry x="7567.25" y="437" width="80" height="30" as="geometry" />
        </mxCell>
        <mxCell id="A6AokKThXicrLh0-pZuk-453" value="2 | 10 | 1" style="whiteSpace=wrap;strokeWidth=2;strokeColor=#990099;" vertex="1" parent="1">
          <mxGeometry x="7347.25" y="549" width="80" height="30" as="geometry" />
        </mxCell>
        <mxCell id="A6AokKThXicrLh0-pZuk-454" value="2 | 00 | -1" style="whiteSpace=wrap;strokeWidth=2;strokeColor=#990099;" vertex="1" parent="1">
          <mxGeometry x="7257.25" y="549" width="80" height="30" as="geometry" />
        </mxCell>
        <mxCell id="A6AokKThXicrLh0-pZuk-455" value="-2 | 00 | 1" style="whiteSpace=wrap;strokeWidth=2;strokeColor=#990099;" vertex="1" parent="1">
          <mxGeometry x="7798.25" y="549" width="80" height="30" as="geometry" />
        </mxCell>
        <mxCell id="A6AokKThXicrLh0-pZuk-456" value="-2 | 01 | 1" style="whiteSpace=wrap;strokeWidth=2;strokeColor=#990099;" vertex="1" parent="1">
          <mxGeometry x="7977.25" y="549" width="80" height="30" as="geometry" />
        </mxCell>
        <mxCell id="A6AokKThXicrLh0-pZuk-457" value="2 | 01 | 1" style="whiteSpace=wrap;strokeWidth=2;strokeColor=#990099;" vertex="1" parent="1">
          <mxGeometry x="7437.25" y="549" width="80" height="30" as="geometry" />
        </mxCell>
        <mxCell id="A6AokKThXicrLh0-pZuk-458" value="-1 | 010 | 1" style="whiteSpace=wrap;strokeWidth=2;strokeColor=#0066CC;" vertex="1" parent="1">
          <mxGeometry x="7887.25" y="437" width="80" height="30" as="geometry" />
        </mxCell>
        <mxCell id="A6AokKThXicrLh0-pZuk-459" value="2 | 0 | 0" style="whiteSpace=wrap;strokeWidth=2;strokeColor=#00CC00;" vertex="1" parent="1">
          <mxGeometry x="7487.25" y="653" width="80" height="30" as="geometry" />
        </mxCell>
        <mxCell id="A6AokKThXicrLh0-pZuk-460" value="-1 | 0000 | 0" style="whiteSpace=wrap;strokeWidth=2;strokeColor=#990099;" vertex="1" parent="1">
          <mxGeometry x="7798.25" y="341" width="80" height="30" as="geometry" />
        </mxCell>
        <mxCell id="A6AokKThXicrLh0-pZuk-461" value="0 | 11 | -1" style="whiteSpace=wrap;strokeWidth=2;strokeColor=#990099;" vertex="1" parent="1">
          <mxGeometry x="7168.25" y="549" width="80" height="30" as="geometry" />
        </mxCell>
        <mxCell id="A6AokKThXicrLh0-pZuk-462" value="-2 | 00 | -1" style="whiteSpace=wrap;strokeWidth=2;strokeColor=#990099;" vertex="1" parent="1">
          <mxGeometry x="8068.25" y="549" width="80" height="30" as="geometry" />
        </mxCell>
        <mxCell id="A6AokKThXicrLh0-pZuk-463" value="0 | 1 | 0" style="whiteSpace=wrap;strokeWidth=2;strokeColor=#FFFF00;" vertex="1" parent="1">
          <mxGeometry x="7617.25" y="653" width="80" height="30" as="geometry" />
        </mxCell>
        <mxCell id="A6AokKThXicrLh0-pZuk-464" value="0 | 1 | 2" style="whiteSpace=wrap;strokeWidth=2;strokeColor=#0066CC;" vertex="1" parent="1">
          <mxGeometry x="8252.25" y="653" width="80" height="30" as="geometry" />
        </mxCell>
        <mxCell id="A6AokKThXicrLh0-pZuk-465" value="" style="startArrow=none;endArrow=block;exitX=0.5;exitY=1;entryX=0.5;entryY=0;rounded=0;entryDx=0;entryDy=0;strokeColor=#FFFFFF;" edge="1" parent="1" source="A6AokKThXicrLh0-pZuk-454" target="A6AokKThXicrLh0-pZuk-423">
          <mxGeometry relative="1" as="geometry" />
        </mxCell>
        <mxCell id="A6AokKThXicrLh0-pZuk-466" value="" style="startArrow=none;endArrow=block;exitX=0.5;exitY=1;entryX=0.5;entryY=0;rounded=0;" edge="1" parent="1" source="A6AokKThXicrLh0-pZuk-433" target="A6AokKThXicrLh0-pZuk-428">
          <mxGeometry relative="1" as="geometry" />
        </mxCell>
        <mxCell id="A6AokKThXicrLh0-pZuk-467" value="" style="startArrow=none;endArrow=block;exitX=0.5;exitY=1;entryX=0.5;entryY=0;rounded=0;" edge="1" parent="1" source="A6AokKThXicrLh0-pZuk-449" target="A6AokKThXicrLh0-pZuk-464">
          <mxGeometry relative="1" as="geometry" />
        </mxCell>
        <mxCell id="A6AokKThXicrLh0-pZuk-468" value="" style="startArrow=none;endArrow=block;exitX=0.5;exitY=1;entryX=0.5;entryY=0;rounded=0;exitDx=0;exitDy=0;strokeColor=#FFFFFF;" edge="1" parent="1" source="A6AokKThXicrLh0-pZuk-448" target="A6AokKThXicrLh0-pZuk-432">
          <mxGeometry relative="1" as="geometry" />
        </mxCell>
        <mxCell id="A6AokKThXicrLh0-pZuk-469" value="" style="startArrow=none;endArrow=block;exitX=0.5;exitY=1;entryX=0.46;entryY=0;rounded=0;" edge="1" parent="1" source="A6AokKThXicrLh0-pZuk-430" target="A6AokKThXicrLh0-pZuk-461">
          <mxGeometry relative="1" as="geometry" />
        </mxCell>
        <mxCell id="A6AokKThXicrLh0-pZuk-470" value="" style="startArrow=none;endArrow=block;exitX=0.5;exitY=1;entryX=0.5;entryY=0;rounded=0;exitDx=0;exitDy=0;entryDx=0;entryDy=0;" edge="1" parent="1" source="A6AokKThXicrLh0-pZuk-458" target="A6AokKThXicrLh0-pZuk-455">
          <mxGeometry relative="1" as="geometry" />
        </mxCell>
        <mxCell id="A6AokKThXicrLh0-pZuk-471" value="" style="startArrow=none;endArrow=block;exitX=0.5;exitY=1;entryX=0.5;entryY=0;rounded=0;" edge="1" parent="1" source="A6AokKThXicrLh0-pZuk-436" target="A6AokKThXicrLh0-pZuk-424">
          <mxGeometry relative="1" as="geometry" />
        </mxCell>
        <mxCell id="A6AokKThXicrLh0-pZuk-472" value="" style="startArrow=none;endArrow=block;exitX=0.5;exitY=1;entryX=0.5;entryY=0;rounded=0;exitDx=0;exitDy=0;" edge="1" parent="1" source="A6AokKThXicrLh0-pZuk-431" target="A6AokKThXicrLh0-pZuk-436">
          <mxGeometry relative="1" as="geometry" />
        </mxCell>
        <mxCell id="A6AokKThXicrLh0-pZuk-473" value="" style="startArrow=none;endArrow=block;exitX=0.5;exitY=1;entryX=0.5;entryY=0;rounded=0;exitDx=0;exitDy=0;" edge="1" parent="1" source="A6AokKThXicrLh0-pZuk-435" target="A6AokKThXicrLh0-pZuk-439">
          <mxGeometry relative="1" as="geometry" />
        </mxCell>
        <mxCell id="A6AokKThXicrLh0-pZuk-474" value="" style="startArrow=none;endArrow=block;exitX=0.5;exitY=1;entryX=0.5;entryY=0;rounded=0;exitDx=0;exitDy=0;" edge="1" parent="1" source="A6AokKThXicrLh0-pZuk-460" target="A6AokKThXicrLh0-pZuk-437">
          <mxGeometry relative="1" as="geometry" />
        </mxCell>
        <mxCell id="A6AokKThXicrLh0-pZuk-475" value="" style="startArrow=none;endArrow=block;exitX=0.5;exitY=1;entryX=0.5;entryY=0;rounded=0;" edge="1" parent="1" source="A6AokKThXicrLh0-pZuk-456" target="A6AokKThXicrLh0-pZuk-441">
          <mxGeometry relative="1" as="geometry" />
        </mxCell>
        <mxCell id="A6AokKThXicrLh0-pZuk-476" value="" style="startArrow=none;endArrow=block;exitX=0.5;exitY=1;rounded=0;entryX=0.5;entryY=0;entryDx=0;entryDy=0;exitDx=0;exitDy=0;strokeColor=#33FFFF;strokeWidth=2;" edge="1" parent="1" source="A6AokKThXicrLh0-pZuk-442" target="A6AokKThXicrLh0-pZuk-444">
          <mxGeometry relative="1" as="geometry">
            <mxPoint x="7457.25" y="427" as="targetPoint" />
          </mxGeometry>
        </mxCell>
        <mxCell id="A6AokKThXicrLh0-pZuk-477" value="" style="startArrow=none;endArrow=block;exitX=0.5;exitY=1;entryX=0.5;entryY=0;rounded=0;entryDx=0;entryDy=0;exitDx=0;exitDy=0;" edge="1" parent="1" source="A6AokKThXicrLh0-pZuk-439" target="A6AokKThXicrLh0-pZuk-461">
          <mxGeometry relative="1" as="geometry" />
        </mxCell>
        <mxCell id="A6AokKThXicrLh0-pZuk-478" value="" style="startArrow=none;endArrow=block;exitX=0.5;exitY=1;entryX=0.5;entryY=0;rounded=0;exitDx=0;exitDy=0;" edge="1" parent="1" source="A6AokKThXicrLh0-pZuk-458" target="A6AokKThXicrLh0-pZuk-456">
          <mxGeometry relative="1" as="geometry" />
        </mxCell>
        <mxCell id="A6AokKThXicrLh0-pZuk-479" value="" style="startArrow=none;endArrow=block;exitX=0.5;exitY=1;entryX=0.5;entryY=0;rounded=0;strokeColor=#FFFFFF;" edge="1" parent="1" source="A6AokKThXicrLh0-pZuk-443" target="A6AokKThXicrLh0-pZuk-463">
          <mxGeometry relative="1" as="geometry" />
        </mxCell>
        <mxCell id="A6AokKThXicrLh0-pZuk-480" value="" style="startArrow=none;endArrow=block;exitX=0.5;exitY=1;rounded=0;entryX=0.5;entryY=0;entryDx=0;entryDy=0;" edge="1" parent="1" source="A6AokKThXicrLh0-pZuk-462" target="A6AokKThXicrLh0-pZuk-450">
          <mxGeometry relative="1" as="geometry">
            <mxPoint x="7780.25" y="627" as="targetPoint" />
          </mxGeometry>
        </mxCell>
        <mxCell id="A6AokKThXicrLh0-pZuk-481" value="" style="startArrow=none;endArrow=block;exitX=0.48;exitY=1;entryX=0.5;entryY=0;rounded=0;" edge="1" parent="1" source="A6AokKThXicrLh0-pZuk-435" target="A6AokKThXicrLh0-pZuk-431">
          <mxGeometry relative="1" as="geometry" />
        </mxCell>
        <mxCell id="A6AokKThXicrLh0-pZuk-482" value="" style="startArrow=none;endArrow=block;exitX=0.5;exitY=1;entryX=0.5;entryY=0;rounded=0;exitDx=0;exitDy=0;" edge="1" parent="1" source="A6AokKThXicrLh0-pZuk-460" target="A6AokKThXicrLh0-pZuk-426">
          <mxGeometry relative="1" as="geometry" />
        </mxCell>
        <mxCell id="A6AokKThXicrLh0-pZuk-483" value="" style="startArrow=none;endArrow=block;exitX=0.5;exitY=1;entryX=0.5;entryY=0;rounded=0;exitDx=0;exitDy=0;" edge="1" parent="1" source="A6AokKThXicrLh0-pZuk-434" target="A6AokKThXicrLh0-pZuk-430">
          <mxGeometry relative="1" as="geometry" />
        </mxCell>
        <mxCell id="A6AokKThXicrLh0-pZuk-484" value="" style="startArrow=none;endArrow=block;exitX=0.5;exitY=1;entryX=0.5;entryY=0;rounded=0;exitDx=0;exitDy=0;entryDx=0;entryDy=0;strokeColor=#33FFFF;strokeWidth=2;" edge="1" parent="1" source="A6AokKThXicrLh0-pZuk-434" target="A6AokKThXicrLh0-pZuk-444">
          <mxGeometry relative="1" as="geometry" />
        </mxCell>
        <mxCell id="A6AokKThXicrLh0-pZuk-485" value="" style="startArrow=none;endArrow=block;exitX=0.5;exitY=1;entryX=0.5;entryY=0;rounded=0;entryDx=0;entryDy=0;strokeColor=#33FFFF;strokeWidth=2;" edge="1" parent="1" source="A6AokKThXicrLh0-pZuk-457" target="A6AokKThXicrLh0-pZuk-459">
          <mxGeometry relative="1" as="geometry" />
        </mxCell>
        <mxCell id="A6AokKThXicrLh0-pZuk-486" value="" style="startArrow=none;endArrow=block;exitX=0.5;exitY=1;entryX=0.5;entryY=0;rounded=0;exitDx=0;exitDy=0;strokeColor=#00CC00;strokeWidth=2;" edge="1" parent="1" source="A6AokKThXicrLh0-pZuk-427" target="A6AokKThXicrLh0-pZuk-434">
          <mxGeometry relative="1" as="geometry" />
        </mxCell>
        <mxCell id="A6AokKThXicrLh0-pZuk-487" value="" style="startArrow=none;endArrow=block;entryX=0.5;entryY=0;rounded=0;entryDx=0;entryDy=0;exitX=0.5;exitY=1;exitDx=0;exitDy=0;strokeColor=#33FFFF;strokeWidth=2;" edge="1" parent="1" source="A6AokKThXicrLh0-pZuk-442" target="A6AokKThXicrLh0-pZuk-440">
          <mxGeometry relative="1" as="geometry">
            <mxPoint x="7397.25" y="397" as="sourcePoint" />
          </mxGeometry>
        </mxCell>
        <mxCell id="A6AokKThXicrLh0-pZuk-488" value="" style="startArrow=none;endArrow=block;exitX=0.5;exitY=1;entryX=0.5;entryY=0;rounded=0;strokeColor=#FFFFFF;" edge="1" parent="1" source="A6AokKThXicrLh0-pZuk-447" target="A6AokKThXicrLh0-pZuk-445">
          <mxGeometry relative="1" as="geometry" />
        </mxCell>
        <mxCell id="A6AokKThXicrLh0-pZuk-489" value="" style="startArrow=none;endArrow=block;entryX=0.5;entryY=0;rounded=0;exitX=0.5;exitY=1;exitDx=0;exitDy=0;" edge="1" parent="1" source="A6AokKThXicrLh0-pZuk-439" target="A6AokKThXicrLh0-pZuk-462">
          <mxGeometry relative="1" as="geometry">
            <mxPoint x="8860.25" y="507" as="sourcePoint" />
          </mxGeometry>
        </mxCell>
        <mxCell id="A6AokKThXicrLh0-pZuk-490" value="" style="startArrow=none;endArrow=block;exitX=0.5;exitY=1;entryX=0.5;entryY=0;rounded=0;exitDx=0;exitDy=0;strokeColor=#FFFFFF;" edge="1" parent="1" source="A6AokKThXicrLh0-pZuk-452" target="A6AokKThXicrLh0-pZuk-451">
          <mxGeometry relative="1" as="geometry" />
        </mxCell>
        <mxCell id="A6AokKThXicrLh0-pZuk-491" value="" style="startArrow=none;endArrow=block;exitX=0.5;exitY=1;entryX=0.5;entryY=0;rounded=0;exitDx=0;exitDy=0;entryDx=0;entryDy=0;strokeColor=#00CC00;strokeWidth=2;" edge="1" parent="1" source="A6AokKThXicrLh0-pZuk-444" target="A6AokKThXicrLh0-pZuk-453">
          <mxGeometry relative="1" as="geometry" />
        </mxCell>
        <mxCell id="A6AokKThXicrLh0-pZuk-492" value="" style="startArrow=none;endArrow=block;exitX=0.5;exitY=1;entryX=0.5;entryY=0;rounded=0;strokeColor=#FFFFFF;" edge="1" parent="1" source="A6AokKThXicrLh0-pZuk-461" target="A6AokKThXicrLh0-pZuk-429">
          <mxGeometry relative="1" as="geometry" />
        </mxCell>
        <mxCell id="A6AokKThXicrLh0-pZuk-493" value="" style="startArrow=none;endArrow=block;exitX=0.5;exitY=1;entryX=0.5;entryY=0;rounded=0;exitDx=0;exitDy=0;strokeColor=#FFFFFF;" edge="1" parent="1" source="A6AokKThXicrLh0-pZuk-430" target="A6AokKThXicrLh0-pZuk-454">
          <mxGeometry relative="1" as="geometry" />
        </mxCell>
        <mxCell id="A6AokKThXicrLh0-pZuk-494" value="" style="startArrow=none;endArrow=block;exitX=0.5;exitY=1;entryX=0.5;entryY=0;rounded=0;exitDx=0;exitDy=0;" edge="1" parent="1" source="A6AokKThXicrLh0-pZuk-427" target="A6AokKThXicrLh0-pZuk-460">
          <mxGeometry relative="1" as="geometry" />
        </mxCell>
        <mxCell id="A6AokKThXicrLh0-pZuk-495" value="" style="startArrow=none;endArrow=block;exitX=0.5;exitY=1;entryX=0.5;entryY=0;rounded=0;exitDx=0;exitDy=0;entryDx=0;entryDy=0;strokeColor=#33FFFF;strokeWidth=2;" edge="1" parent="1" source="A6AokKThXicrLh0-pZuk-434" target="A6AokKThXicrLh0-pZuk-440">
          <mxGeometry relative="1" as="geometry" />
        </mxCell>
        <mxCell id="A6AokKThXicrLh0-pZuk-496" value="" style="startArrow=none;endArrow=block;exitX=0.5;exitY=1;entryX=0.5;entryY=0;rounded=0;exitDx=0;exitDy=0;entryDx=0;entryDy=0;" edge="1" parent="1" source="A6AokKThXicrLh0-pZuk-437" target="A6AokKThXicrLh0-pZuk-455">
          <mxGeometry relative="1" as="geometry" />
        </mxCell>
        <mxCell id="A6AokKThXicrLh0-pZuk-497" value="" style="startArrow=none;endArrow=block;exitX=0.5;exitY=1;rounded=0;entryX=0.5;entryY=0;entryDx=0;entryDy=0;" edge="1" parent="1" source="A6AokKThXicrLh0-pZuk-446" target="A6AokKThXicrLh0-pZuk-450">
          <mxGeometry relative="1" as="geometry">
            <mxPoint x="7820.25" y="637" as="targetPoint" />
          </mxGeometry>
        </mxCell>
        <mxCell id="A6AokKThXicrLh0-pZuk-498" value="" style="startArrow=none;endArrow=block;exitX=0.5;exitY=1;entryX=0.5;entryY=0;rounded=0;entryDx=0;entryDy=0;exitDx=0;exitDy=0;strokeColor=#00CC00;strokeWidth=2;" edge="1" parent="1" source="A6AokKThXicrLh0-pZuk-440" target="A6AokKThXicrLh0-pZuk-453">
          <mxGeometry relative="1" as="geometry" />
        </mxCell>
        <mxCell id="A6AokKThXicrLh0-pZuk-499" value="" style="startArrow=none;endArrow=block;exitX=0.5;exitY=1;entryX=0.52;entryY=0;rounded=0;strokeColor=#FFFFFF;" edge="1" parent="1" source="A6AokKThXicrLh0-pZuk-451" target="A6AokKThXicrLh0-pZuk-459">
          <mxGeometry relative="1" as="geometry" />
        </mxCell>
        <mxCell id="A6AokKThXicrLh0-pZuk-500" value="" style="startArrow=none;endArrow=block;exitX=0.5;exitY=1;entryX=0.5;entryY=0;rounded=0;exitDx=0;exitDy=0;" edge="1" parent="1" source="A6AokKThXicrLh0-pZuk-452" target="A6AokKThXicrLh0-pZuk-443">
          <mxGeometry relative="1" as="geometry" />
        </mxCell>
        <mxCell id="A6AokKThXicrLh0-pZuk-501" value="" style="startArrow=none;endArrow=block;exitX=0.5;exitY=1;entryX=0.5;entryY=0;rounded=0;exitDx=0;exitDy=0;" edge="1" parent="1" source="A6AokKThXicrLh0-pZuk-426" target="A6AokKThXicrLh0-pZuk-446">
          <mxGeometry relative="1" as="geometry" />
        </mxCell>
        <mxCell id="A6AokKThXicrLh0-pZuk-502" value="" style="startArrow=none;endArrow=block;exitX=0.5;exitY=1;entryX=0.5;entryY=0;rounded=0;" edge="1" parent="1" source="A6AokKThXicrLh0-pZuk-455" target="A6AokKThXicrLh0-pZuk-438">
          <mxGeometry relative="1" as="geometry" />
        </mxCell>
        <mxCell id="A6AokKThXicrLh0-pZuk-503" value="" style="startArrow=none;endArrow=block;exitX=0.5;exitY=1;entryX=0.5;entryY=0;rounded=0;exitDx=0;exitDy=0;entryDx=0;entryDy=0;strokeColor=#00CC00;strokeWidth=2;" edge="1" parent="1" source="A6AokKThXicrLh0-pZuk-444" target="A6AokKThXicrLh0-pZuk-457">
          <mxGeometry relative="1" as="geometry" />
        </mxCell>
        <mxCell id="A6AokKThXicrLh0-pZuk-504" value="" style="startArrow=none;endArrow=block;exitX=0.5;exitY=1;entryX=0.5;entryY=0;rounded=0;strokeColor=#FFFFFF;" edge="1" parent="1" source="A6AokKThXicrLh0-pZuk-432" target="A6AokKThXicrLh0-pZuk-425">
          <mxGeometry relative="1" as="geometry" />
        </mxCell>
        <mxCell id="A6AokKThXicrLh0-pZuk-505" value="" style="startArrow=none;endArrow=block;exitX=0.5;exitY=1;entryX=0.5;entryY=0;rounded=0;exitDx=0;exitDy=0;" edge="1" parent="1" source="A6AokKThXicrLh0-pZuk-431" target="A6AokKThXicrLh0-pZuk-449">
          <mxGeometry relative="1" as="geometry" />
        </mxCell>
        <mxCell id="A6AokKThXicrLh0-pZuk-506" value="" style="startArrow=none;endArrow=block;exitX=0.5;exitY=1;entryX=0.5;entryY=0;rounded=0;exitDx=0;exitDy=0;" edge="1" parent="1" source="A6AokKThXicrLh0-pZuk-460" target="A6AokKThXicrLh0-pZuk-458">
          <mxGeometry relative="1" as="geometry" />
        </mxCell>
        <mxCell id="A6AokKThXicrLh0-pZuk-507" value="" style="startArrow=none;endArrow=block;exitX=0.5;exitY=1;entryX=0.5;entryY=0;rounded=0;exitDx=0;exitDy=0;" edge="1" parent="1" source="A6AokKThXicrLh0-pZuk-427" target="A6AokKThXicrLh0-pZuk-435">
          <mxGeometry relative="1" as="geometry" />
        </mxCell>
        <mxCell id="A6AokKThXicrLh0-pZuk-508" value="" style="startArrow=none;endArrow=block;exitX=0.5;exitY=1;entryX=0.5;entryY=0;rounded=0;exitDx=0;exitDy=0;strokeColor=#FFFFFF;" edge="1" parent="1" source="A6AokKThXicrLh0-pZuk-448" target="A6AokKThXicrLh0-pZuk-447">
          <mxGeometry relative="1" as="geometry" />
        </mxCell>
        <mxCell id="A6AokKThXicrLh0-pZuk-509" value="" style="startArrow=none;endArrow=block;exitX=0.5;exitY=1;entryX=0.5;entryY=0;rounded=0;exitDx=0;exitDy=0;" edge="1" parent="1" source="A6AokKThXicrLh0-pZuk-442" target="A6AokKThXicrLh0-pZuk-452">
          <mxGeometry relative="1" as="geometry" />
        </mxCell>
        <mxCell id="A6AokKThXicrLh0-pZuk-510" value="" style="startArrow=none;endArrow=block;exitX=0.5;exitY=1;entryX=0.5;entryY=0;rounded=0;exitDx=0;exitDy=0;" edge="1" parent="1" source="A6AokKThXicrLh0-pZuk-435" target="A6AokKThXicrLh0-pZuk-448">
          <mxGeometry relative="1" as="geometry" />
        </mxCell>
        <mxCell id="A6AokKThXicrLh0-pZuk-511" value="" style="startArrow=none;endArrow=block;rounded=0;exitX=0.5;exitY=1;exitDx=0;exitDy=0;entryX=0.5;entryY=0;entryDx=0;entryDy=0;" edge="1" parent="1" source="A6AokKThXicrLh0-pZuk-426" target="A6AokKThXicrLh0-pZuk-433">
          <mxGeometry relative="1" as="geometry">
            <mxPoint x="8288.25" y="487" as="sourcePoint" />
            <mxPoint x="8098.25" y="549" as="targetPoint" />
          </mxGeometry>
        </mxCell>
        <mxCell id="A6AokKThXicrLh0-pZuk-512" value="" style="startArrow=none;endArrow=block;exitX=0.5;exitY=1;entryX=0.5;entryY=0;rounded=0;entryDx=0;entryDy=0;exitDx=0;exitDy=0;" edge="1" parent="1" source="A6AokKThXicrLh0-pZuk-437" target="A6AokKThXicrLh0-pZuk-433">
          <mxGeometry relative="1" as="geometry" />
        </mxCell>
        <mxCell id="A6AokKThXicrLh0-pZuk-513" value="" style="startArrow=none;endArrow=block;exitX=0.5;exitY=1;entryX=0.5;entryY=0;rounded=0;exitDx=0;exitDy=0;entryDx=0;entryDy=0;strokeColor=#00CC00;strokeWidth=2;" edge="1" parent="1" source="A6AokKThXicrLh0-pZuk-440" target="A6AokKThXicrLh0-pZuk-457">
          <mxGeometry relative="1" as="geometry" />
        </mxCell>
        <mxCell id="A6AokKThXicrLh0-pZuk-514" value="" style="startArrow=none;endArrow=block;exitX=0.5;exitY=1;entryX=0.5;entryY=0;rounded=0;exitDx=0;exitDy=0;strokeColor=#00CC00;strokeWidth=2;" edge="1" parent="1" source="A6AokKThXicrLh0-pZuk-427" target="A6AokKThXicrLh0-pZuk-442">
          <mxGeometry relative="1" as="geometry" />
        </mxCell>
        <mxCell id="A6AokKThXicrLh0-pZuk-515" value="" style="startArrow=none;endArrow=block;exitX=0.5;exitY=1;entryX=0.5;entryY=0;rounded=0;strokeColor=#33FFFF;strokeWidth=2;" edge="1" parent="1" source="A6AokKThXicrLh0-pZuk-453" target="A6AokKThXicrLh0-pZuk-423">
          <mxGeometry relative="1" as="geometry" />
        </mxCell>
        <mxCell id="A6AokKThXicrLh0-pZuk-520" value="" style="endArrow=none;dashed=1;html=1;dashPattern=1 3;strokeWidth=2;rounded=0;" edge="1" parent="1">
          <mxGeometry width="50" height="50" relative="1" as="geometry">
            <mxPoint x="7160" y="297" as="sourcePoint" />
            <mxPoint x="8598.916666666666" y="297" as="targetPoint" />
          </mxGeometry>
        </mxCell>
        <mxCell id="A6AokKThXicrLh0-pZuk-521" value="&lt;font style=&quot;font-size: 32px;&quot;&gt;P1&lt;/font&gt;" style="edgeLabel;html=1;align=center;verticalAlign=middle;resizable=0;points=[];" vertex="1" connectable="0" parent="A6AokKThXicrLh0-pZuk-520">
          <mxGeometry x="0.9284" y="-2" relative="1" as="geometry">
            <mxPoint x="-1" as="offset" />
          </mxGeometry>
        </mxCell>
        <mxCell id="A6AokKThXicrLh0-pZuk-522" value="" style="endArrow=none;dashed=1;html=1;dashPattern=1 3;strokeWidth=2;rounded=0;" edge="1" parent="1">
          <mxGeometry width="50" height="50" relative="1" as="geometry">
            <mxPoint x="7140" y="407" as="sourcePoint" />
            <mxPoint x="8594.086666666666" y="407" as="targetPoint" />
          </mxGeometry>
        </mxCell>
        <mxCell id="A6AokKThXicrLh0-pZuk-523" value="&lt;font style=&quot;font-size: 32px;&quot;&gt;P2&lt;/font&gt;" style="edgeLabel;html=1;align=center;verticalAlign=middle;resizable=0;points=[];" vertex="1" connectable="0" parent="A6AokKThXicrLh0-pZuk-522">
          <mxGeometry x="0.9284" y="-2" relative="1" as="geometry">
            <mxPoint x="-1" as="offset" />
          </mxGeometry>
        </mxCell>
        <mxCell id="A6AokKThXicrLh0-pZuk-526" value="" style="endArrow=none;dashed=1;html=1;dashPattern=1 3;strokeWidth=2;rounded=0;" edge="1" parent="1">
          <mxGeometry width="50" height="50" relative="1" as="geometry">
            <mxPoint x="7110" y="618" as="sourcePoint" />
            <mxPoint x="8591.666666666666" y="618.17" as="targetPoint" />
          </mxGeometry>
        </mxCell>
        <mxCell id="A6AokKThXicrLh0-pZuk-527" value="&lt;font style=&quot;font-size: 32px;&quot;&gt;P2&lt;/font&gt;" style="edgeLabel;html=1;align=center;verticalAlign=middle;resizable=0;points=[];" vertex="1" connectable="0" parent="A6AokKThXicrLh0-pZuk-526">
          <mxGeometry x="0.9284" y="-2" relative="1" as="geometry">
            <mxPoint x="-1" as="offset" />
          </mxGeometry>
        </mxCell>
        <mxCell id="A6AokKThXicrLh0-pZuk-528" value="" style="endArrow=none;dashed=1;html=1;dashPattern=1 3;strokeWidth=2;rounded=0;" edge="1" parent="1">
          <mxGeometry width="50" height="50" relative="1" as="geometry">
            <mxPoint x="7110" y="511" as="sourcePoint" />
            <mxPoint x="8596.496666666666" y="508.16999999999996" as="targetPoint" />
          </mxGeometry>
        </mxCell>
        <mxCell id="A6AokKThXicrLh0-pZuk-529" value="&lt;font style=&quot;font-size: 32px;&quot;&gt;P1&lt;/font&gt;" style="edgeLabel;html=1;align=center;verticalAlign=middle;resizable=0;points=[];" vertex="1" connectable="0" parent="A6AokKThXicrLh0-pZuk-528">
          <mxGeometry x="0.9284" y="-2" relative="1" as="geometry">
            <mxPoint x="-1" as="offset" />
          </mxGeometry>
        </mxCell>
        <mxCell id="A6AokKThXicrLh0-pZuk-530" value="1 | 111 | -1" style="whiteSpace=wrap;strokeWidth=2;strokeColor=#0066CC;" vertex="1" parent="1">
          <mxGeometry x="2930" y="456" width="80" height="30" as="geometry" />
        </mxCell>
        <mxCell id="A6AokKThXicrLh0-pZuk-531" value="2 | 1 | -2" style="whiteSpace=wrap;strokeWidth=2;strokeColor=#00CC00;" vertex="1" parent="1">
          <mxGeometry x="2970" y="664" width="80" height="30" as="geometry" />
        </mxCell>
        <mxCell id="A6AokKThXicrLh0-pZuk-532" value="1 | 1011 | 0" style="whiteSpace=wrap;strokeWidth=2;strokeColor=#990099;" vertex="1" parent="1">
          <mxGeometry x="2930" y="354" width="80" height="30" as="geometry" />
        </mxCell>
        <mxCell id="A6AokKThXicrLh0-pZuk-533" value="2 | 01 | -1" style="whiteSpace=wrap;strokeWidth=2;strokeColor=#990099;" vertex="1" parent="1">
          <mxGeometry x="2870" y="558" width="80" height="30" as="geometry" />
        </mxCell>
        <mxCell id="A6AokKThXicrLh0-pZuk-534" value="0 | 01 | -1" style="whiteSpace=wrap;strokeWidth=2;strokeColor=#990099;" vertex="1" parent="1">
          <mxGeometry x="2370" y="558" width="80" height="30" as="geometry" />
        </mxCell>
        <mxCell id="A6AokKThXicrLh0-pZuk-535" value="0 | 0 | -2" style="whiteSpace=wrap;strokeWidth=2;strokeColor=#00CC00;" vertex="1" parent="1">
          <mxGeometry x="2370" y="664" width="80" height="30" as="geometry" />
        </mxCell>
        <mxCell id="A6AokKThXicrLh0-pZuk-536" value="2 | 00 | -1" style="whiteSpace=wrap;strokeWidth=2;strokeColor=#990099;" vertex="1" parent="1">
          <mxGeometry x="2470" y="558" width="80" height="30" as="geometry" />
        </mxCell>
        <mxCell id="A6AokKThXicrLh0-pZuk-537" value="1 | 1101 | 0" style="whiteSpace=wrap;strokeWidth=2;strokeColor=#990099;" vertex="1" parent="1">
          <mxGeometry x="3050" y="354" width="80" height="30" as="geometry" />
        </mxCell>
        <mxCell id="A6AokKThXicrLh0-pZuk-538" value="1 | 100 | 1" style="whiteSpace=wrap;strokeWidth=2;strokeColor=#0066CC;" vertex="1" parent="1">
          <mxGeometry x="2820" y="456" width="80" height="30" as="geometry" />
        </mxCell>
        <mxCell id="A6AokKThXicrLh0-pZuk-539" value="1 | 0111 | 0" style="whiteSpace=wrap;strokeWidth=2;strokeColor=#990099;" vertex="1" parent="1">
          <mxGeometry x="2620" y="346" width="80" height="30" as="geometry" />
        </mxCell>
        <mxCell id="A6AokKThXicrLh0-pZuk-540" value="0 | 10 | -1" style="whiteSpace=wrap;strokeWidth=2;strokeColor=#990099;" vertex="1" parent="1">
          <mxGeometry x="3270" y="558" width="80" height="30" as="geometry" />
        </mxCell>
        <mxCell id="A6AokKThXicrLh0-pZuk-541" value="0 | 1 | 0" style="whiteSpace=wrap;strokeWidth=2;strokeColor=#FFFF00;" vertex="1" parent="1">
          <mxGeometry x="3170" y="664" width="80" height="30" as="geometry" />
        </mxCell>
        <mxCell id="A6AokKThXicrLh0-pZuk-542" value="0 | 11111 | 0" style="whiteSpace=wrap;strokeWidth=2;strokeColor=#0066CC;" vertex="1" parent="1">
          <mxGeometry x="2940" y="250" width="80" height="30" as="geometry" />
        </mxCell>
        <mxCell id="A6AokKThXicrLh0-pZuk-543" value="0 | 11 | -1" style="whiteSpace=wrap;strokeWidth=2;strokeColor=#990099;" vertex="1" parent="1">
          <mxGeometry x="3070" y="558" width="80" height="30" as="geometry" />
        </mxCell>
        <mxCell id="A6AokKThXicrLh0-pZuk-544" value="0 | 0 | 0" style="whiteSpace=wrap;strokeWidth=2;strokeColor=#FFFF00;" vertex="1" parent="1">
          <mxGeometry x="2770" y="664" width="80" height="30" as="geometry" />
        </mxCell>
        <mxCell id="A6AokKThXicrLh0-pZuk-545" value="2 | 10 | -1" style="whiteSpace=wrap;strokeWidth=2;strokeColor=#990099;" vertex="1" parent="1">
          <mxGeometry x="2970" y="558" width="80" height="30" as="geometry" />
        </mxCell>
        <mxCell id="A6AokKThXicrLh0-pZuk-546" value="0 | 10 | 1" style="whiteSpace=wrap;strokeWidth=2;strokeColor=#990099;" vertex="1" parent="1">
          <mxGeometry x="3170" y="558" width="80" height="30" as="geometry" />
        </mxCell>
        <mxCell id="A6AokKThXicrLh0-pZuk-547" value="1 | 1110 | 0" style="whiteSpace=wrap;strokeWidth=2;strokeColor=#990099;" vertex="1" parent="1">
          <mxGeometry x="2770" y="354" width="80" height="30" as="geometry" />
        </mxCell>
        <mxCell id="A6AokKThXicrLh0-pZuk-548" value="1 | 010 | 1" style="whiteSpace=wrap;strokeWidth=2;strokeColor=#0066CC;" vertex="1" parent="1">
          <mxGeometry x="2710" y="456" width="80" height="30" as="geometry" />
        </mxCell>
        <mxCell id="A6AokKThXicrLh0-pZuk-549" value="2 | 1 | 0" style="whiteSpace=wrap;strokeWidth=2;strokeColor=#00CC00;" vertex="1" parent="1">
          <mxGeometry x="2470" y="664" width="80" height="30" as="geometry" />
        </mxCell>
        <mxCell id="A6AokKThXicrLh0-pZuk-550" value="1 | 101 | -1" style="whiteSpace=wrap;strokeWidth=2;strokeColor=#0066CC;" vertex="1" parent="1">
          <mxGeometry x="3070" y="456" width="80" height="30" as="geometry" />
        </mxCell>
        <mxCell id="A6AokKThXicrLh0-pZuk-551" value="0 | 00 | 1" style="whiteSpace=wrap;strokeWidth=2;strokeColor=#990099;" vertex="1" parent="1">
          <mxGeometry x="2670" y="558" width="80" height="30" as="geometry" />
        </mxCell>
        <mxCell id="A6AokKThXicrLh0-pZuk-552" value="2 | 0 | 2" style="whiteSpace=wrap;strokeWidth=2;strokeColor=#FFFF00;" vertex="1" parent="1">
          <mxGeometry x="2570" y="664" width="80" height="30" as="geometry" />
        </mxCell>
        <mxCell id="A6AokKThXicrLh0-pZuk-553" value="1 | 001 | 1" style="whiteSpace=wrap;strokeWidth=2;strokeColor=#0066CC;" vertex="1" parent="1">
          <mxGeometry x="2620" y="456" width="80" height="30" as="geometry" />
        </mxCell>
        <mxCell id="A6AokKThXicrLh0-pZuk-554" value="2 | 11 | 1" style="whiteSpace=wrap;strokeWidth=2;strokeColor=#990099;" vertex="1" parent="1">
          <mxGeometry x="2570" y="558" width="80" height="30" as="geometry" />
        </mxCell>
        <mxCell id="A6AokKThXicrLh0-pZuk-555" value="1 | 110 | -1" style="whiteSpace=wrap;strokeWidth=2;strokeColor=#0066CC;" vertex="1" parent="1">
          <mxGeometry x="3250" y="456" width="80" height="30" as="geometry" />
        </mxCell>
        <mxCell id="A6AokKThXicrLh0-pZuk-556" value="0 | 1 | -2" style="whiteSpace=wrap;strokeWidth=2;strokeColor=#00CC00;" vertex="1" parent="1">
          <mxGeometry x="3270" y="664" width="80" height="30" as="geometry" />
        </mxCell>
        <mxCell id="A6AokKThXicrLh0-pZuk-557" value="0 | 1 | 2" style="whiteSpace=wrap;strokeWidth=2;strokeColor=#0066CC;" vertex="1" parent="1">
          <mxGeometry x="2670" y="664" width="80" height="30" as="geometry" />
        </mxCell>
        <mxCell id="A6AokKThXicrLh0-pZuk-558" value="1 | 011 | -1" style="whiteSpace=wrap;strokeWidth=2;strokeColor=#0066CC;" vertex="1" parent="1">
          <mxGeometry x="2530" y="456" width="80" height="30" as="geometry" />
        </mxCell>
        <mxCell id="A6AokKThXicrLh0-pZuk-559" value="2 | 0 | -2" style="whiteSpace=wrap;strokeWidth=2;strokeColor=#00CC00;" vertex="1" parent="1">
          <mxGeometry x="2870" y="664" width="80" height="30" as="geometry" />
        </mxCell>
        <mxCell id="A6AokKThXicrLh0-pZuk-560" value="0 | 01 | 1" style="whiteSpace=wrap;strokeWidth=2;strokeColor=#990099;" vertex="1" parent="1">
          <mxGeometry x="2770" y="558" width="80" height="30" as="geometry" />
        </mxCell>
        <mxCell id="A6AokKThXicrLh0-pZuk-561" value="" style="startArrow=none;endArrow=block;exitX=0.5;exitY=1;entryX=0.5;entryY=0;rounded=0;strokeColor=#FF66FF;strokeWidth=2;" edge="1" parent="1" source="A6AokKThXicrLh0-pZuk-538" target="A6AokKThXicrLh0-pZuk-546">
          <mxGeometry relative="1" as="geometry" />
        </mxCell>
        <mxCell id="A6AokKThXicrLh0-pZuk-562" value="" style="startArrow=none;endArrow=block;exitX=0.5;exitY=1;entryX=0.5;entryY=0;rounded=0;strokeColor=#FFFFFF;" edge="1" parent="1" source="A6AokKThXicrLh0-pZuk-545" target="A6AokKThXicrLh0-pZuk-531">
          <mxGeometry relative="1" as="geometry" />
        </mxCell>
        <mxCell id="A6AokKThXicrLh0-pZuk-563" value="" style="startArrow=none;endArrow=block;exitX=0.5;exitY=1;rounded=0;exitDx=0;exitDy=0;entryX=0.5;entryY=0;entryDx=0;entryDy=0;" edge="1" parent="1" source="A6AokKThXicrLh0-pZuk-537" target="A6AokKThXicrLh0-pZuk-530">
          <mxGeometry relative="1" as="geometry">
            <mxPoint x="2577" y="440" as="targetPoint" />
          </mxGeometry>
        </mxCell>
        <mxCell id="A6AokKThXicrLh0-pZuk-564" value="" style="startArrow=none;endArrow=block;exitX=0.5;exitY=1;entryX=0.5;entryY=0;rounded=0;exitDx=0;exitDy=0;" edge="1" parent="1" source="A6AokKThXicrLh0-pZuk-550" target="A6AokKThXicrLh0-pZuk-540">
          <mxGeometry relative="1" as="geometry" />
        </mxCell>
        <mxCell id="A6AokKThXicrLh0-pZuk-565" value="" style="startArrow=none;endArrow=block;exitX=0.5;exitY=1;entryX=0.5;entryY=0;rounded=0;exitDx=0;exitDy=0;strokeColor=#FFFFFF;" edge="1" parent="1" source="A6AokKThXicrLh0-pZuk-558" target="A6AokKThXicrLh0-pZuk-534">
          <mxGeometry relative="1" as="geometry" />
        </mxCell>
        <mxCell id="A6AokKThXicrLh0-pZuk-566" value="" style="startArrow=none;endArrow=block;exitX=0.5;exitY=1;entryX=0.5;entryY=0;rounded=0;strokeColor=#FFFFFF;" edge="1" parent="1" source="A6AokKThXicrLh0-pZuk-534" target="A6AokKThXicrLh0-pZuk-535">
          <mxGeometry relative="1" as="geometry" />
        </mxCell>
        <mxCell id="A6AokKThXicrLh0-pZuk-567" value="" style="startArrow=none;endArrow=block;exitX=0.5;exitY=1;entryX=0.5;entryY=0;rounded=0;strokeColor=#FFFFFF;" edge="1" parent="1" source="A6AokKThXicrLh0-pZuk-536" target="A6AokKThXicrLh0-pZuk-549">
          <mxGeometry relative="1" as="geometry" />
        </mxCell>
        <mxCell id="A6AokKThXicrLh0-pZuk-568" value="" style="startArrow=none;endArrow=block;exitX=0.5;exitY=1;entryX=0.5;entryY=0;rounded=0;exitDx=0;exitDy=0;" edge="1" parent="1" source="A6AokKThXicrLh0-pZuk-537" target="A6AokKThXicrLh0-pZuk-555">
          <mxGeometry relative="1" as="geometry" />
        </mxCell>
        <mxCell id="A6AokKThXicrLh0-pZuk-569" value="" style="startArrow=none;endArrow=block;exitX=0.5;exitY=1;entryX=0.5;entryY=0;rounded=0;strokeColor=#FFFFFF;" edge="1" parent="1" source="A6AokKThXicrLh0-pZuk-540" target="A6AokKThXicrLh0-pZuk-556">
          <mxGeometry relative="1" as="geometry" />
        </mxCell>
        <mxCell id="A6AokKThXicrLh0-pZuk-570" value="" style="startArrow=none;endArrow=block;exitX=0.5;exitY=1;entryX=0.5;entryY=0;rounded=0;entryDx=0;entryDy=0;strokeColor=#33FFFF;strokeWidth=2;" edge="1" parent="1" source="A6AokKThXicrLh0-pZuk-560" target="A6AokKThXicrLh0-pZuk-544">
          <mxGeometry relative="1" as="geometry" />
        </mxCell>
        <mxCell id="A6AokKThXicrLh0-pZuk-571" value="" style="startArrow=none;endArrow=block;exitX=0.5;exitY=1;entryX=0.5;entryY=0;rounded=0;exitDx=0;exitDy=0;entryDx=0;entryDy=0;strokeColor=#33FFFF;strokeWidth=2;" edge="1" parent="1" source="A6AokKThXicrLh0-pZuk-537" target="A6AokKThXicrLh0-pZuk-553">
          <mxGeometry relative="1" as="geometry" />
        </mxCell>
        <mxCell id="A6AokKThXicrLh0-pZuk-572" value="" style="startArrow=none;endArrow=block;exitX=0.5;exitY=1;entryX=0.5;entryY=0;rounded=0;entryDx=0;entryDy=0;exitDx=0;exitDy=0;strokeColor=#FFFFFF;" edge="1" parent="1" source="A6AokKThXicrLh0-pZuk-555" target="A6AokKThXicrLh0-pZuk-536">
          <mxGeometry relative="1" as="geometry" />
        </mxCell>
        <mxCell id="A6AokKThXicrLh0-pZuk-573" value="" style="startArrow=none;endArrow=block;exitX=0.5;exitY=1;entryX=0.5;entryY=0;rounded=0;exitDx=0;exitDy=0;strokeColor=#FFFFFF;" edge="1" parent="1" source="A6AokKThXicrLh0-pZuk-530" target="A6AokKThXicrLh0-pZuk-545">
          <mxGeometry relative="1" as="geometry" />
        </mxCell>
        <mxCell id="A6AokKThXicrLh0-pZuk-574" value="" style="startArrow=none;endArrow=block;exitX=0.5;exitY=1;entryX=0.5;entryY=0;rounded=0;entryDx=0;entryDy=0;" edge="1" parent="1" source="A6AokKThXicrLh0-pZuk-548" target="A6AokKThXicrLh0-pZuk-551">
          <mxGeometry relative="1" as="geometry" />
        </mxCell>
        <mxCell id="A6AokKThXicrLh0-pZuk-575" value="" style="startArrow=none;endArrow=block;exitX=0.5;exitY=1;entryX=0.5;entryY=0;rounded=0;strokeColor=#FFFFFF;" edge="1" parent="1" source="A6AokKThXicrLh0-pZuk-533" target="A6AokKThXicrLh0-pZuk-559">
          <mxGeometry relative="1" as="geometry" />
        </mxCell>
        <mxCell id="A6AokKThXicrLh0-pZuk-576" value="" style="startArrow=none;endArrow=block;exitX=0.5;exitY=1;entryX=0.5;entryY=0;rounded=0;strokeColor=#33FFFF;strokeWidth=2;" edge="1" parent="1" source="A6AokKThXicrLh0-pZuk-554" target="A6AokKThXicrLh0-pZuk-552">
          <mxGeometry relative="1" as="geometry" />
        </mxCell>
        <mxCell id="A6AokKThXicrLh0-pZuk-577" value="" style="startArrow=none;endArrow=block;exitX=0.5;exitY=1;entryX=0.5;entryY=0;rounded=0;exitDx=0;exitDy=0;strokeColor=#FFFF00;strokeWidth=2;" edge="1" parent="1" source="A6AokKThXicrLh0-pZuk-542" target="A6AokKThXicrLh0-pZuk-547">
          <mxGeometry relative="1" as="geometry" />
        </mxCell>
        <mxCell id="A6AokKThXicrLh0-pZuk-578" value="" style="startArrow=none;endArrow=block;exitX=0.5;exitY=1;entryX=0.5;entryY=0;rounded=0;exitDx=0;exitDy=0;strokeColor=#FFFF00;strokeWidth=2;" edge="1" parent="1" source="A6AokKThXicrLh0-pZuk-542" target="A6AokKThXicrLh0-pZuk-539">
          <mxGeometry relative="1" as="geometry" />
        </mxCell>
        <mxCell id="A6AokKThXicrLh0-pZuk-579" value="" style="startArrow=none;endArrow=block;exitX=0.5;exitY=1;entryX=0.5;entryY=0;rounded=0;exitDx=0;exitDy=0;entryDx=0;entryDy=0;" edge="1" parent="1" source="A6AokKThXicrLh0-pZuk-555" target="A6AokKThXicrLh0-pZuk-543">
          <mxGeometry relative="1" as="geometry" />
        </mxCell>
        <mxCell id="A6AokKThXicrLh0-pZuk-580" value="" style="startArrow=none;endArrow=block;exitX=0.5;exitY=1;entryX=0.5;entryY=0;rounded=0;exitDx=0;exitDy=0;entryDx=0;entryDy=0;" edge="1" parent="1" source="A6AokKThXicrLh0-pZuk-532" target="A6AokKThXicrLh0-pZuk-530">
          <mxGeometry relative="1" as="geometry" />
        </mxCell>
        <mxCell id="A6AokKThXicrLh0-pZuk-581" value="" style="startArrow=none;endArrow=block;exitX=0.5;exitY=1;entryX=0.5;entryY=0;rounded=0;entryDx=0;entryDy=0;exitDx=0;exitDy=0;strokeColor=#FFFF00;strokeWidth=2;" edge="1" parent="1" source="A6AokKThXicrLh0-pZuk-538" target="A6AokKThXicrLh0-pZuk-554">
          <mxGeometry relative="1" as="geometry" />
        </mxCell>
        <mxCell id="A6AokKThXicrLh0-pZuk-582" value="" style="startArrow=none;endArrow=block;exitX=0.5;exitY=1;entryX=0.5;entryY=0;rounded=0;" edge="1" parent="1" source="A6AokKThXicrLh0-pZuk-551" target="A6AokKThXicrLh0-pZuk-557">
          <mxGeometry relative="1" as="geometry" />
        </mxCell>
        <mxCell id="A6AokKThXicrLh0-pZuk-583" value="" style="startArrow=none;endArrow=block;exitX=0.5;exitY=1;entryX=0.5;entryY=0;rounded=0;exitDx=0;exitDy=0;" edge="1" parent="1" source="A6AokKThXicrLh0-pZuk-539" target="A6AokKThXicrLh0-pZuk-558">
          <mxGeometry relative="1" as="geometry" />
        </mxCell>
        <mxCell id="A6AokKThXicrLh0-pZuk-584" value="" style="startArrow=none;endArrow=block;exitX=0.5;exitY=1;entryX=0.5;entryY=0;rounded=0;strokeColor=#33FFFF;strokeWidth=2;" edge="1" parent="1" source="A6AokKThXicrLh0-pZuk-546" target="A6AokKThXicrLh0-pZuk-541">
          <mxGeometry relative="1" as="geometry" />
        </mxCell>
        <mxCell id="A6AokKThXicrLh0-pZuk-585" value="" style="startArrow=none;endArrow=block;exitX=0.5;exitY=1;entryX=0.5;entryY=0;rounded=0;entryDx=0;entryDy=0;exitDx=0;exitDy=0;strokeColor=#33FFFF;strokeWidth=2;" edge="1" parent="1" source="A6AokKThXicrLh0-pZuk-539" target="A6AokKThXicrLh0-pZuk-548">
          <mxGeometry relative="1" as="geometry" />
        </mxCell>
        <mxCell id="A6AokKThXicrLh0-pZuk-586" value="" style="startArrow=none;endArrow=block;exitX=0.5;exitY=1;rounded=0;entryX=0.5;entryY=0;entryDx=0;entryDy=0;exitDx=0;exitDy=0;strokeColor=#33FFFF;strokeWidth=2;" edge="1" parent="1" source="A6AokKThXicrLh0-pZuk-532" target="A6AokKThXicrLh0-pZuk-538">
          <mxGeometry relative="1" as="geometry">
            <mxPoint x="3130" y="440" as="targetPoint" />
          </mxGeometry>
        </mxCell>
        <mxCell id="A6AokKThXicrLh0-pZuk-587" value="" style="startArrow=none;endArrow=block;exitX=0.5;exitY=1;entryX=0.5;entryY=0;rounded=0;exitDx=0;exitDy=0;strokeColor=#FFFFFF;" edge="1" parent="1" source="A6AokKThXicrLh0-pZuk-530" target="A6AokKThXicrLh0-pZuk-533">
          <mxGeometry relative="1" as="geometry" />
        </mxCell>
        <mxCell id="A6AokKThXicrLh0-pZuk-588" value="" style="startArrow=none;endArrow=block;entryX=0.5;entryY=0;rounded=0;exitX=0.5;exitY=1;exitDx=0;exitDy=0;strokeColor=#FFFF00;strokeWidth=2;" edge="1" parent="1" source="A6AokKThXicrLh0-pZuk-542" target="A6AokKThXicrLh0-pZuk-532">
          <mxGeometry relative="1" as="geometry">
            <mxPoint x="2780" y="240" as="sourcePoint" />
          </mxGeometry>
        </mxCell>
        <mxCell id="A6AokKThXicrLh0-pZuk-589" value="" style="startArrow=none;endArrow=block;exitX=0.5;exitY=1;entryX=0.5;entryY=0;rounded=0;exitDx=0;exitDy=0;strokeColor=#FFFF00;strokeWidth=2;" edge="1" parent="1" source="A6AokKThXicrLh0-pZuk-542" target="A6AokKThXicrLh0-pZuk-537">
          <mxGeometry relative="1" as="geometry" />
        </mxCell>
        <mxCell id="A6AokKThXicrLh0-pZuk-590" value="" style="startArrow=none;endArrow=block;exitX=0.5;exitY=1;entryX=0.5;entryY=0;rounded=0;entryDx=0;entryDy=0;exitDx=0;exitDy=0;strokeColor=#33FFFF;strokeWidth=2;" edge="1" parent="1" source="A6AokKThXicrLh0-pZuk-547" target="A6AokKThXicrLh0-pZuk-548">
          <mxGeometry relative="1" as="geometry" />
        </mxCell>
        <mxCell id="A6AokKThXicrLh0-pZuk-591" value="" style="startArrow=none;endArrow=block;exitX=0.5;exitY=1;rounded=0;exitDx=0;exitDy=0;entryX=0.5;entryY=0;entryDx=0;entryDy=0;strokeColor=#FFFF00;strokeWidth=2;" edge="1" parent="1" source="A6AokKThXicrLh0-pZuk-553" target="A6AokKThXicrLh0-pZuk-554">
          <mxGeometry relative="1" as="geometry">
            <mxPoint x="3240" y="620" as="targetPoint" />
          </mxGeometry>
        </mxCell>
        <mxCell id="A6AokKThXicrLh0-pZuk-592" value="" style="startArrow=none;endArrow=block;exitX=0.5;exitY=1;entryX=0.5;entryY=0;rounded=0;exitDx=0;exitDy=0;entryDx=0;entryDy=0;" edge="1" parent="1" source="A6AokKThXicrLh0-pZuk-547" target="A6AokKThXicrLh0-pZuk-530">
          <mxGeometry relative="1" as="geometry" />
        </mxCell>
        <mxCell id="A6AokKThXicrLh0-pZuk-593" value="" style="startArrow=none;endArrow=block;exitX=0.5;exitY=1;entryX=0.5;entryY=0;rounded=0;entryDx=0;entryDy=0;strokeColor=#FFFFFF;" edge="1" parent="1" source="A6AokKThXicrLh0-pZuk-543" target="A6AokKThXicrLh0-pZuk-544">
          <mxGeometry relative="1" as="geometry" />
        </mxCell>
        <mxCell id="A6AokKThXicrLh0-pZuk-594" value="" style="startArrow=none;endArrow=block;exitX=0.5;exitY=1;entryX=0.5;entryY=0;rounded=0;exitDx=0;exitDy=0;" edge="1" parent="1" source="A6AokKThXicrLh0-pZuk-532" target="A6AokKThXicrLh0-pZuk-550">
          <mxGeometry relative="1" as="geometry" />
        </mxCell>
        <mxCell id="A6AokKThXicrLh0-pZuk-595" value="" style="startArrow=none;endArrow=block;exitX=0.5;exitY=1;entryX=0.5;entryY=0;rounded=0;entryDx=0;entryDy=0;exitDx=0;exitDy=0;strokeColor=#FFFFFF;" edge="1" parent="1" source="A6AokKThXicrLh0-pZuk-558" target="A6AokKThXicrLh0-pZuk-536">
          <mxGeometry relative="1" as="geometry" />
        </mxCell>
        <mxCell id="A6AokKThXicrLh0-pZuk-596" value="" style="startArrow=none;endArrow=block;exitX=0.5;exitY=1;entryX=0.5;entryY=0;rounded=0;entryDx=0;entryDy=0;exitDx=0;exitDy=0;" edge="1" parent="1" source="A6AokKThXicrLh0-pZuk-553" target="A6AokKThXicrLh0-pZuk-551">
          <mxGeometry relative="1" as="geometry" />
        </mxCell>
        <mxCell id="A6AokKThXicrLh0-pZuk-597" value="" style="startArrow=none;endArrow=block;exitX=0.5;exitY=1;entryX=0.5;entryY=0;rounded=0;entryDx=0;entryDy=0;exitDx=0;exitDy=0;strokeColor=#33FFFF;strokeWidth=2;" edge="1" parent="1" source="A6AokKThXicrLh0-pZuk-539" target="A6AokKThXicrLh0-pZuk-553">
          <mxGeometry relative="1" as="geometry" />
        </mxCell>
        <mxCell id="A6AokKThXicrLh0-pZuk-598" value="" style="startArrow=none;endArrow=block;exitX=0.5;exitY=1;entryX=0.5;entryY=0;rounded=0;entryDx=0;entryDy=0;exitDx=0;exitDy=0;strokeColor=#FFFFFF;" edge="1" parent="1" source="A6AokKThXicrLh0-pZuk-550" target="A6AokKThXicrLh0-pZuk-543">
          <mxGeometry relative="1" as="geometry" />
        </mxCell>
        <mxCell id="A6AokKThXicrLh0-pZuk-599" value="" style="startArrow=none;endArrow=block;exitX=0.5;exitY=1;entryX=0.5;entryY=0;rounded=0;entryDx=0;entryDy=0;exitDx=0;exitDy=0;strokeColor=#33FFFF;strokeWidth=2;" edge="1" parent="1" source="A6AokKThXicrLh0-pZuk-547" target="A6AokKThXicrLh0-pZuk-538">
          <mxGeometry relative="1" as="geometry" />
        </mxCell>
        <mxCell id="A6AokKThXicrLh0-pZuk-600" value="" style="startArrow=none;endArrow=block;exitX=0.5;exitY=1;entryX=0.5;entryY=0;rounded=0;exitDx=0;exitDy=0;strokeColor=#FF66FF;strokeWidth=2;" edge="1" parent="1" source="A6AokKThXicrLh0-pZuk-548" target="A6AokKThXicrLh0-pZuk-560">
          <mxGeometry relative="1" as="geometry" />
        </mxCell>
        <mxCell id="A6AokKThXicrLh0-pZuk-601" value="" style="endArrow=none;dashed=1;html=1;dashPattern=1 3;strokeWidth=2;rounded=0;" edge="1" parent="1">
          <mxGeometry width="50" height="50" relative="1" as="geometry">
            <mxPoint x="2370" y="312" as="sourcePoint" />
            <mxPoint x="3468.916666666667" y="311.65" as="targetPoint" />
          </mxGeometry>
        </mxCell>
        <mxCell id="A6AokKThXicrLh0-pZuk-602" value="&lt;font style=&quot;font-size: 32px;&quot;&gt;P1&lt;/font&gt;" style="edgeLabel;html=1;align=center;verticalAlign=middle;resizable=0;points=[];" vertex="1" connectable="0" parent="A6AokKThXicrLh0-pZuk-601">
          <mxGeometry x="0.9284" y="-2" relative="1" as="geometry">
            <mxPoint x="-1" as="offset" />
          </mxGeometry>
        </mxCell>
        <mxCell id="A6AokKThXicrLh0-pZuk-603" value="" style="endArrow=none;dashed=1;html=1;dashPattern=1 3;strokeWidth=2;rounded=0;" edge="1" parent="1">
          <mxGeometry width="50" height="50" relative="1" as="geometry">
            <mxPoint x="2380" y="422" as="sourcePoint" />
            <mxPoint x="3464.086666666667" y="421.65" as="targetPoint" />
          </mxGeometry>
        </mxCell>
        <mxCell id="A6AokKThXicrLh0-pZuk-604" value="&lt;font style=&quot;font-size: 32px;&quot;&gt;P2&lt;/font&gt;" style="edgeLabel;html=1;align=center;verticalAlign=middle;resizable=0;points=[];" vertex="1" connectable="0" parent="A6AokKThXicrLh0-pZuk-603">
          <mxGeometry x="0.9284" y="-2" relative="1" as="geometry">
            <mxPoint x="-1" as="offset" />
          </mxGeometry>
        </mxCell>
        <mxCell id="A6AokKThXicrLh0-pZuk-605" value="" style="endArrow=none;dashed=1;html=1;dashPattern=1 3;strokeWidth=2;rounded=0;" edge="1" parent="1">
          <mxGeometry width="50" height="50" relative="1" as="geometry">
            <mxPoint x="2370" y="630" as="sourcePoint" />
            <mxPoint x="3461.666666666667" y="632.8199999999999" as="targetPoint" />
          </mxGeometry>
        </mxCell>
        <mxCell id="A6AokKThXicrLh0-pZuk-606" value="&lt;font style=&quot;font-size: 32px;&quot;&gt;P2&lt;/font&gt;" style="edgeLabel;html=1;align=center;verticalAlign=middle;resizable=0;points=[];" vertex="1" connectable="0" parent="A6AokKThXicrLh0-pZuk-605">
          <mxGeometry x="0.9284" y="-2" relative="1" as="geometry">
            <mxPoint x="-1" as="offset" />
          </mxGeometry>
        </mxCell>
        <mxCell id="A6AokKThXicrLh0-pZuk-607" value="" style="endArrow=none;dashed=1;html=1;dashPattern=1 3;strokeWidth=2;rounded=0;" edge="1" parent="1">
          <mxGeometry width="50" height="50" relative="1" as="geometry">
            <mxPoint x="2380" y="520" as="sourcePoint" />
            <mxPoint x="3466.496666666667" y="522.8199999999999" as="targetPoint" />
          </mxGeometry>
        </mxCell>
        <mxCell id="A6AokKThXicrLh0-pZuk-608" value="&lt;font style=&quot;font-size: 32px;&quot;&gt;P1&lt;/font&gt;" style="edgeLabel;html=1;align=center;verticalAlign=middle;resizable=0;points=[];" vertex="1" connectable="0" parent="A6AokKThXicrLh0-pZuk-607">
          <mxGeometry x="0.9284" y="-2" relative="1" as="geometry">
            <mxPoint x="-1" as="offset" />
          </mxGeometry>
        </mxCell>
        <mxCell id="A6AokKThXicrLh0-pZuk-683" value="0 | 11 | -1" style="whiteSpace=wrap;strokeWidth=2;strokeColor=#990099;" vertex="1" parent="1">
          <mxGeometry x="4360" y="582" width="80" height="30" as="geometry" />
        </mxCell>
        <mxCell id="A6AokKThXicrLh0-pZuk-684" value="-2 | 1 | 0" style="whiteSpace=wrap;strokeWidth=2;strokeColor=#0066CC;" vertex="1" parent="1">
          <mxGeometry x="4450" y="670" width="80" height="30" as="geometry" />
        </mxCell>
        <mxCell id="A6AokKThXicrLh0-pZuk-685" value="0 | 1 | -2" style="whiteSpace=wrap;strokeWidth=2;strokeColor=#00CC00;" vertex="1" parent="1">
          <mxGeometry x="3820" y="670" width="80" height="30" as="geometry" />
        </mxCell>
        <mxCell id="A6AokKThXicrLh0-pZuk-686" value="0 | 00 | -1" style="whiteSpace=wrap;strokeWidth=2;strokeColor=#990099;" vertex="1" parent="1">
          <mxGeometry x="3910" y="582" width="80" height="30" as="geometry" />
        </mxCell>
        <mxCell id="A6AokKThXicrLh0-pZuk-687" value="-2 | 0 | 0" style="whiteSpace=wrap;strokeWidth=2;strokeColor=#0066CC;" vertex="1" parent="1">
          <mxGeometry x="4000" y="670" width="80" height="30" as="geometry" />
        </mxCell>
        <mxCell id="A6AokKThXicrLh0-pZuk-688" value="0 | 0 | 2" style="whiteSpace=wrap;strokeWidth=2;strokeColor=#0066CC;" vertex="1" parent="1">
          <mxGeometry x="3550" y="670" width="80" height="30" as="geometry" />
        </mxCell>
        <mxCell id="A6AokKThXicrLh0-pZuk-689" value="-1 | 1011 | 0" style="whiteSpace=wrap;strokeWidth=2;strokeColor=#990099;" vertex="1" parent="1">
          <mxGeometry x="4100" y="346" width="80" height="30" as="geometry" />
        </mxCell>
        <mxCell id="A6AokKThXicrLh0-pZuk-690" value="0 | 10 | -1" style="whiteSpace=wrap;strokeWidth=2;strokeColor=#990099;" vertex="1" parent="1">
          <mxGeometry x="3820" y="582" width="80" height="30" as="geometry" />
        </mxCell>
        <mxCell id="A6AokKThXicrLh0-pZuk-691" value="-2 | 10 | -1" style="whiteSpace=wrap;strokeWidth=2;strokeColor=#990099;" vertex="1" parent="1">
          <mxGeometry x="4090" y="582" width="80" height="30" as="geometry" />
        </mxCell>
        <mxCell id="A6AokKThXicrLh0-pZuk-692" value="0 | 10 | 1" style="whiteSpace=wrap;strokeWidth=2;strokeColor=#990099;" vertex="1" parent="1">
          <mxGeometry x="4270" y="582" width="80" height="30" as="geometry" />
        </mxCell>
        <mxCell id="A6AokKThXicrLh0-pZuk-693" value="-2 | 00 | 1" style="whiteSpace=wrap;strokeWidth=2;strokeColor=#990099;" vertex="1" parent="1">
          <mxGeometry x="3640" y="582" width="80" height="30" as="geometry" />
        </mxCell>
        <mxCell id="A6AokKThXicrLh0-pZuk-694" value="-1 | 100 | 1" style="whiteSpace=wrap;strokeWidth=2;strokeColor=#0066CC;" vertex="1" parent="1">
          <mxGeometry x="4330" y="450" width="80" height="30" as="geometry" />
        </mxCell>
        <mxCell id="A6AokKThXicrLh0-pZuk-695" value="-1 | 111 | -1" style="whiteSpace=wrap;strokeWidth=2;strokeColor=#0066CC;" vertex="1" parent="1">
          <mxGeometry x="4150" y="450" width="80" height="30" as="geometry" />
        </mxCell>
        <mxCell id="A6AokKThXicrLh0-pZuk-696" value="-2 | 11 | -1" style="whiteSpace=wrap;strokeWidth=2;strokeColor=#990099;" vertex="1" parent="1">
          <mxGeometry x="4000" y="582" width="80" height="30" as="geometry" />
        </mxCell>
        <mxCell id="A6AokKThXicrLh0-pZuk-697" value="0 | 1 | 0" style="whiteSpace=wrap;strokeWidth=2;strokeColor=#FFFF00;" vertex="1" parent="1">
          <mxGeometry x="3910" y="670" width="80" height="30" as="geometry" />
        </mxCell>
        <mxCell id="A6AokKThXicrLh0-pZuk-698" value="0 | 01 | -1" style="whiteSpace=wrap;strokeWidth=2;strokeColor=#990099;" vertex="1" parent="1">
          <mxGeometry x="3730" y="582" width="80" height="30" as="geometry" />
        </mxCell>
        <mxCell id="A6AokKThXicrLh0-pZuk-699" value="-1 | 1101 | 0" style="whiteSpace=wrap;strokeWidth=2;strokeColor=#990099;" vertex="1" parent="1">
          <mxGeometry x="3920" y="346" width="80" height="30" as="geometry" />
        </mxCell>
        <mxCell id="A6AokKThXicrLh0-pZuk-700" value="0 | 10101 | 0" style="whiteSpace=wrap;strokeWidth=2;strokeColor=#0066CC;" vertex="1" parent="1">
          <mxGeometry x="4080" y="250" width="80" height="30" as="geometry" />
        </mxCell>
        <mxCell id="A6AokKThXicrLh0-pZuk-701" value="0 | 01 | 1" style="whiteSpace=wrap;strokeWidth=2;strokeColor=#990099;" vertex="1" parent="1">
          <mxGeometry x="4180" y="582" width="80" height="30" as="geometry" />
        </mxCell>
        <mxCell id="A6AokKThXicrLh0-pZuk-702" value="-1 | 1001 | 0" style="whiteSpace=wrap;strokeWidth=2;strokeColor=#990099;" vertex="1" parent="1">
          <mxGeometry x="4010" y="346" width="80" height="30" as="geometry" />
        </mxCell>
        <mxCell id="A6AokKThXicrLh0-pZuk-703" value="-1 | 1010 | 0" style="whiteSpace=wrap;strokeWidth=2;strokeColor=#990099;" vertex="1" parent="1">
          <mxGeometry x="4190" y="346" width="80" height="30" as="geometry" />
        </mxCell>
        <mxCell id="A6AokKThXicrLh0-pZuk-704" value="0 | 0 | -2" style="whiteSpace=wrap;strokeWidth=2;strokeColor=#00CC00;" vertex="1" parent="1">
          <mxGeometry x="3730" y="670" width="80" height="30" as="geometry" />
        </mxCell>
        <mxCell id="A6AokKThXicrLh0-pZuk-705" value="0 | 11 | 1" style="whiteSpace=wrap;strokeWidth=2;strokeColor=#990099;" vertex="1" parent="1">
          <mxGeometry x="3550" y="582" width="80" height="30" as="geometry" />
        </mxCell>
        <mxCell id="A6AokKThXicrLh0-pZuk-706" value="-2 | 1 | 2" style="whiteSpace=wrap;strokeWidth=2;strokeColor=#0066CC;" vertex="1" parent="1">
          <mxGeometry x="3640" y="670" width="80" height="30" as="geometry" />
        </mxCell>
        <mxCell id="A6AokKThXicrLh0-pZuk-707" value="-2 | 10 | 1" style="whiteSpace=wrap;strokeWidth=2;strokeColor=#990099;" vertex="1" parent="1">
          <mxGeometry x="4450" y="582" width="80" height="30" as="geometry" />
        </mxCell>
        <mxCell id="A6AokKThXicrLh0-pZuk-708" value="-1 | 001 | 1" style="whiteSpace=wrap;strokeWidth=2;strokeColor=#0066CC;" vertex="1" parent="1">
          <mxGeometry x="3790" y="450" width="80" height="30" as="geometry" />
        </mxCell>
        <mxCell id="A6AokKThXicrLh0-pZuk-709" value="-1 | 101 | -1" style="whiteSpace=wrap;strokeWidth=2;strokeColor=#0066CC;" vertex="1" parent="1">
          <mxGeometry x="3970" y="450" width="80" height="30" as="geometry" />
        </mxCell>
        <mxCell id="A6AokKThXicrLh0-pZuk-710" value="0 | 0 | 0" style="whiteSpace=wrap;strokeWidth=2;strokeColor=#FFFF00;" vertex="1" parent="1">
          <mxGeometry x="4180" y="670" width="80" height="30" as="geometry" />
        </mxCell>
        <mxCell id="A6AokKThXicrLh0-pZuk-711" value="-1 | 110 | -1" style="whiteSpace=wrap;strokeWidth=2;strokeColor=#0066CC;" vertex="1" parent="1">
          <mxGeometry x="3880" y="450" width="80" height="30" as="geometry" />
        </mxCell>
        <mxCell id="A6AokKThXicrLh0-pZuk-712" value="-2 | 1 | -2" style="whiteSpace=wrap;strokeWidth=2;strokeColor=#FFFF00;" vertex="1" parent="1">
          <mxGeometry x="4090" y="670" width="80" height="30" as="geometry" />
        </mxCell>
        <mxCell id="A6AokKThXicrLh0-pZuk-713" value="-1 | 100 | -1" style="whiteSpace=wrap;strokeWidth=2;strokeColor=#0066CC;" vertex="1" parent="1">
          <mxGeometry x="4240" y="450" width="80" height="30" as="geometry" />
        </mxCell>
        <mxCell id="A6AokKThXicrLh0-pZuk-714" value="-1 | 111 | 1" style="whiteSpace=wrap;strokeWidth=2;strokeColor=#0066CC;" vertex="1" parent="1">
          <mxGeometry x="4060" y="450" width="80" height="30" as="geometry" />
        </mxCell>
        <mxCell id="A6AokKThXicrLh0-pZuk-715" value="" style="startArrow=none;endArrow=block;exitX=0.5;exitY=1;entryX=0.5;entryY=0;rounded=0;entryDx=0;entryDy=0;strokeColor=#FF66FF;" edge="1" parent="1" source="A6AokKThXicrLh0-pZuk-686" target="A6AokKThXicrLh0-pZuk-697">
          <mxGeometry relative="1" as="geometry" />
        </mxCell>
        <mxCell id="A6AokKThXicrLh0-pZuk-716" value="" style="startArrow=none;endArrow=block;exitX=0.5;exitY=1;entryX=0.5;entryY=0;rounded=0;exitDx=0;exitDy=0;entryDx=0;entryDy=0;strokeColor=#FF66FF;" edge="1" parent="1" source="A6AokKThXicrLh0-pZuk-709" target="A6AokKThXicrLh0-pZuk-691">
          <mxGeometry relative="1" as="geometry" />
        </mxCell>
        <mxCell id="A6AokKThXicrLh0-pZuk-717" value="" style="startArrow=none;endArrow=block;exitX=0.5;exitY=1;entryX=0.5;entryY=0;rounded=0;exitDx=0;exitDy=0;entryDx=0;entryDy=0;strokeColor=#FFFFFF;" edge="1" parent="1" source="A6AokKThXicrLh0-pZuk-708" target="A6AokKThXicrLh0-pZuk-705">
          <mxGeometry relative="1" as="geometry" />
        </mxCell>
        <mxCell id="A6AokKThXicrLh0-pZuk-718" value="" style="startArrow=none;endArrow=block;exitX=0.5;exitY=1;entryX=0.5;entryY=0;rounded=0;exitDx=0;exitDy=0;strokeColor=#33FFFF;strokeWidth=2;" edge="1" parent="1" source="A6AokKThXicrLh0-pZuk-702" target="A6AokKThXicrLh0-pZuk-714">
          <mxGeometry relative="1" as="geometry" />
        </mxCell>
        <mxCell id="A6AokKThXicrLh0-pZuk-719" value="" style="startArrow=none;endArrow=block;exitX=0.5;exitY=1;entryX=0.5;entryY=0;rounded=0;exitDx=0;exitDy=0;" edge="1" parent="1" source="A6AokKThXicrLh0-pZuk-694" target="A6AokKThXicrLh0-pZuk-707">
          <mxGeometry relative="1" as="geometry" />
        </mxCell>
        <mxCell id="A6AokKThXicrLh0-pZuk-720" value="" style="startArrow=none;endArrow=block;exitX=0.5;exitY=1;entryX=0.5;entryY=0;rounded=0;exitDx=0;exitDy=0;strokeColor=#FFFFFF;" edge="1" parent="1" source="A6AokKThXicrLh0-pZuk-700" target="A6AokKThXicrLh0-pZuk-699">
          <mxGeometry relative="1" as="geometry" />
        </mxCell>
        <mxCell id="A6AokKThXicrLh0-pZuk-721" value="" style="startArrow=none;endArrow=block;entryX=0.5;entryY=0;rounded=0;exitX=0.5;exitY=1;exitDx=0;exitDy=0;strokeColor=#FFFF00;strokeWidth=2;" edge="1" parent="1" source="A6AokKThXicrLh0-pZuk-700" target="A6AokKThXicrLh0-pZuk-702">
          <mxGeometry relative="1" as="geometry">
            <mxPoint x="4450" y="300" as="sourcePoint" />
          </mxGeometry>
        </mxCell>
        <mxCell id="A6AokKThXicrLh0-pZuk-722" value="" style="startArrow=none;endArrow=block;exitX=0.5;exitY=1;entryX=0.5;entryY=0;rounded=0;exitDx=0;exitDy=0;strokeColor=#FFFFFF;" edge="1" parent="1" source="A6AokKThXicrLh0-pZuk-695" target="A6AokKThXicrLh0-pZuk-690">
          <mxGeometry relative="1" as="geometry" />
        </mxCell>
        <mxCell id="A6AokKThXicrLh0-pZuk-723" value="" style="startArrow=none;endArrow=block;exitX=0.5;exitY=1;entryX=0.5;entryY=0;rounded=0;" edge="1" parent="1" source="A6AokKThXicrLh0-pZuk-693" target="A6AokKThXicrLh0-pZuk-706">
          <mxGeometry relative="1" as="geometry" />
        </mxCell>
        <mxCell id="A6AokKThXicrLh0-pZuk-724" value="" style="startArrow=none;endArrow=block;exitX=0.5;exitY=1;entryX=0.5;entryY=0;rounded=0;exitDx=0;exitDy=0;" edge="1" parent="1" source="A6AokKThXicrLh0-pZuk-708" target="A6AokKThXicrLh0-pZuk-693">
          <mxGeometry relative="1" as="geometry" />
        </mxCell>
        <mxCell id="A6AokKThXicrLh0-pZuk-725" value="" style="startArrow=none;endArrow=block;exitX=0.5;exitY=1;entryX=0.5;entryY=0;rounded=0;strokeColor=#FFFFFF;" edge="1" parent="1" source="A6AokKThXicrLh0-pZuk-690" target="A6AokKThXicrLh0-pZuk-685">
          <mxGeometry relative="1" as="geometry" />
        </mxCell>
        <mxCell id="A6AokKThXicrLh0-pZuk-726" value="" style="startArrow=none;endArrow=block;exitX=0.5;exitY=1;entryX=0.5;entryY=0;rounded=0;entryDx=0;entryDy=0;strokeColor=#33FFFF;strokeWidth=2;" edge="1" parent="1" source="A6AokKThXicrLh0-pZuk-692" target="A6AokKThXicrLh0-pZuk-697">
          <mxGeometry relative="1" as="geometry" />
        </mxCell>
        <mxCell id="A6AokKThXicrLh0-pZuk-727" value="" style="startArrow=none;endArrow=block;exitX=0.5;exitY=1;entryX=0.5;entryY=0;rounded=0;entryDx=0;entryDy=0;exitDx=0;exitDy=0;" edge="1" parent="1" source="A6AokKThXicrLh0-pZuk-689" target="A6AokKThXicrLh0-pZuk-709">
          <mxGeometry relative="1" as="geometry" />
        </mxCell>
        <mxCell id="A6AokKThXicrLh0-pZuk-728" value="" style="startArrow=none;endArrow=block;exitX=0.5;exitY=1;entryX=0.5;entryY=0;rounded=0;exitDx=0;exitDy=0;strokeColor=#FF66FF;" edge="1" parent="1" source="A6AokKThXicrLh0-pZuk-703" target="A6AokKThXicrLh0-pZuk-709">
          <mxGeometry relative="1" as="geometry" />
        </mxCell>
        <mxCell id="A6AokKThXicrLh0-pZuk-729" value="" style="startArrow=none;endArrow=block;exitX=0.5;exitY=1;entryX=0.5;entryY=0;rounded=0;entryDx=0;entryDy=0;exitDx=0;exitDy=0;" edge="1" parent="1" source="A6AokKThXicrLh0-pZuk-711" target="A6AokKThXicrLh0-pZuk-696">
          <mxGeometry relative="1" as="geometry" />
        </mxCell>
        <mxCell id="A6AokKThXicrLh0-pZuk-730" value="" style="startArrow=none;endArrow=block;exitX=0.5;exitY=1;entryX=0.5;entryY=0;rounded=0;strokeColor=#FF66FF;" edge="1" parent="1" source="A6AokKThXicrLh0-pZuk-691" target="A6AokKThXicrLh0-pZuk-712">
          <mxGeometry relative="1" as="geometry" />
        </mxCell>
        <mxCell id="A6AokKThXicrLh0-pZuk-731" value="" style="startArrow=none;endArrow=block;exitX=0.5;exitY=1;entryX=0.5;entryY=0;rounded=0;exitDx=0;exitDy=0;strokeColor=#FFFF00;strokeWidth=2;" edge="1" parent="1" source="A6AokKThXicrLh0-pZuk-714" target="A6AokKThXicrLh0-pZuk-701">
          <mxGeometry relative="1" as="geometry" />
        </mxCell>
        <mxCell id="A6AokKThXicrLh0-pZuk-732" value="" style="startArrow=none;endArrow=block;exitX=0.5;exitY=1;entryX=0.5;entryY=0;rounded=0;entryDx=0;entryDy=0;exitDx=0;exitDy=0;strokeColor=#FF66FF;" edge="1" parent="1" source="A6AokKThXicrLh0-pZuk-703" target="A6AokKThXicrLh0-pZuk-713">
          <mxGeometry relative="1" as="geometry" />
        </mxCell>
        <mxCell id="A6AokKThXicrLh0-pZuk-733" value="" style="startArrow=none;endArrow=block;exitX=0.49;exitY=1;entryX=0.5;entryY=0;rounded=0;strokeColor=#FFFFFF;" edge="1" parent="1" source="A6AokKThXicrLh0-pZuk-698" target="A6AokKThXicrLh0-pZuk-704">
          <mxGeometry relative="1" as="geometry" />
        </mxCell>
        <mxCell id="A6AokKThXicrLh0-pZuk-734" value="" style="startArrow=none;endArrow=block;exitX=0.5;exitY=1;entryX=0.5;entryY=0;rounded=0;strokeColor=#FF66FF;" edge="1" parent="1" source="A6AokKThXicrLh0-pZuk-696" target="A6AokKThXicrLh0-pZuk-687">
          <mxGeometry relative="1" as="geometry" />
        </mxCell>
        <mxCell id="A6AokKThXicrLh0-pZuk-735" value="" style="startArrow=none;endArrow=block;exitX=0.5;exitY=1;rounded=0;entryX=0.5;entryY=0;entryDx=0;entryDy=0;strokeColor=#33FFFF;strokeWidth=2;" edge="1" parent="1" source="A6AokKThXicrLh0-pZuk-701" target="A6AokKThXicrLh0-pZuk-710">
          <mxGeometry relative="1" as="geometry">
            <mxPoint x="4780" y="674" as="targetPoint" />
          </mxGeometry>
        </mxCell>
        <mxCell id="A6AokKThXicrLh0-pZuk-736" value="" style="startArrow=none;endArrow=block;exitX=0.5;exitY=1;entryX=0.5;entryY=0;rounded=0;exitDx=0;exitDy=0;strokeColor=#FF66FF;" edge="1" parent="1" source="A6AokKThXicrLh0-pZuk-713" target="A6AokKThXicrLh0-pZuk-683">
          <mxGeometry relative="1" as="geometry" />
        </mxCell>
        <mxCell id="A6AokKThXicrLh0-pZuk-737" value="" style="startArrow=none;endArrow=block;exitX=0.5;exitY=1;entryX=0.5;entryY=0;rounded=0;" edge="1" parent="1" source="A6AokKThXicrLh0-pZuk-705" target="A6AokKThXicrLh0-pZuk-688">
          <mxGeometry relative="1" as="geometry" />
        </mxCell>
        <mxCell id="A6AokKThXicrLh0-pZuk-738" value="" style="startArrow=none;endArrow=block;exitX=0.5;exitY=1;entryX=0.5;entryY=0;rounded=0;entryDx=0;entryDy=0;exitDx=0;exitDy=0;strokeColor=#FFFFFF;" edge="1" parent="1" source="A6AokKThXicrLh0-pZuk-694" target="A6AokKThXicrLh0-pZuk-705">
          <mxGeometry relative="1" as="geometry" />
        </mxCell>
        <mxCell id="A6AokKThXicrLh0-pZuk-739" value="" style="startArrow=none;endArrow=block;exitX=0.5;exitY=1;entryX=0.46;entryY=0;rounded=0;exitDx=0;exitDy=0;" edge="1" parent="1" source="A6AokKThXicrLh0-pZuk-699" target="A6AokKThXicrLh0-pZuk-695">
          <mxGeometry relative="1" as="geometry" />
        </mxCell>
        <mxCell id="A6AokKThXicrLh0-pZuk-740" value="" style="startArrow=none;endArrow=block;exitX=0.5;exitY=1;entryX=0.5;entryY=0;rounded=0;entryDx=0;entryDy=0;exitDx=0;exitDy=0;" edge="1" parent="1" source="A6AokKThXicrLh0-pZuk-702" target="A6AokKThXicrLh0-pZuk-709">
          <mxGeometry relative="1" as="geometry" />
        </mxCell>
        <mxCell id="A6AokKThXicrLh0-pZuk-741" value="" style="startArrow=none;endArrow=block;entryX=0.5;entryY=0;rounded=0;exitX=0.5;exitY=1;exitDx=0;exitDy=0;strokeColor=#FFFFFF;" edge="1" parent="1" source="A6AokKThXicrLh0-pZuk-700" target="A6AokKThXicrLh0-pZuk-689">
          <mxGeometry relative="1" as="geometry">
            <mxPoint x="4900" y="320" as="sourcePoint" />
          </mxGeometry>
        </mxCell>
        <mxCell id="A6AokKThXicrLh0-pZuk-742" value="" style="startArrow=none;endArrow=block;exitX=0.5;exitY=1;entryX=0.5;entryY=0;rounded=0;exitDx=0;exitDy=0;strokeColor=#FFFFFF;" edge="1" parent="1" source="A6AokKThXicrLh0-pZuk-689" target="A6AokKThXicrLh0-pZuk-694">
          <mxGeometry relative="1" as="geometry" />
        </mxCell>
        <mxCell id="A6AokKThXicrLh0-pZuk-743" value="" style="startArrow=none;endArrow=block;exitX=0.5;exitY=1;entryX=0.5;entryY=0;rounded=0;exitDx=0;exitDy=0;strokeColor=#FF66FF;" edge="1" parent="1" source="A6AokKThXicrLh0-pZuk-700" target="A6AokKThXicrLh0-pZuk-703">
          <mxGeometry relative="1" as="geometry" />
        </mxCell>
        <mxCell id="A6AokKThXicrLh0-pZuk-744" value="" style="startArrow=none;endArrow=block;exitX=0.5;exitY=1;entryX=0.49;entryY=0;rounded=0;exitDx=0;exitDy=0;strokeColor=#FFFFFF;" edge="1" parent="1" source="A6AokKThXicrLh0-pZuk-695" target="A6AokKThXicrLh0-pZuk-698">
          <mxGeometry relative="1" as="geometry" />
        </mxCell>
        <mxCell id="A6AokKThXicrLh0-pZuk-745" value="" style="startArrow=none;endArrow=block;exitX=0.5;exitY=1;entryX=0.5;entryY=0;rounded=0;entryDx=0;entryDy=0;exitDx=0;exitDy=0;" edge="1" parent="1" source="A6AokKThXicrLh0-pZuk-709" target="A6AokKThXicrLh0-pZuk-696">
          <mxGeometry relative="1" as="geometry" />
        </mxCell>
        <mxCell id="A6AokKThXicrLh0-pZuk-746" value="" style="startArrow=none;endArrow=block;exitX=0.5;exitY=1;entryX=0.5;entryY=0;rounded=0;entryDx=0;entryDy=0;exitDx=0;exitDy=0;" edge="1" parent="1" source="A6AokKThXicrLh0-pZuk-702" target="A6AokKThXicrLh0-pZuk-713">
          <mxGeometry relative="1" as="geometry" />
        </mxCell>
        <mxCell id="A6AokKThXicrLh0-pZuk-747" value="" style="startArrow=none;endArrow=block;exitX=0.5;exitY=1;entryX=0.5;entryY=0;rounded=0;entryDx=0;entryDy=0;strokeColor=#FF66FF;" edge="1" parent="1" source="A6AokKThXicrLh0-pZuk-683" target="A6AokKThXicrLh0-pZuk-710">
          <mxGeometry relative="1" as="geometry" />
        </mxCell>
        <mxCell id="A6AokKThXicrLh0-pZuk-748" value="" style="startArrow=none;endArrow=block;exitX=0.5;exitY=1;entryX=0.5;entryY=0;rounded=0;exitDx=0;exitDy=0;strokeColor=#FFFF00;strokeWidth=2;" edge="1" parent="1" source="A6AokKThXicrLh0-pZuk-714" target="A6AokKThXicrLh0-pZuk-692">
          <mxGeometry relative="1" as="geometry" />
        </mxCell>
        <mxCell id="A6AokKThXicrLh0-pZuk-749" value="" style="startArrow=none;endArrow=block;exitX=0.5;exitY=1;entryX=0.5;entryY=0;rounded=0;exitDx=0;exitDy=0;strokeColor=#FF66FF;" edge="1" parent="1" source="A6AokKThXicrLh0-pZuk-711" target="A6AokKThXicrLh0-pZuk-686">
          <mxGeometry relative="1" as="geometry" />
        </mxCell>
        <mxCell id="A6AokKThXicrLh0-pZuk-750" value="" style="startArrow=none;endArrow=block;exitX=0.49;exitY=1;entryX=0.5;entryY=0;rounded=0;entryDx=0;entryDy=0;" edge="1" parent="1" source="A6AokKThXicrLh0-pZuk-699" target="A6AokKThXicrLh0-pZuk-711">
          <mxGeometry relative="1" as="geometry" />
        </mxCell>
        <mxCell id="A6AokKThXicrLh0-pZuk-751" value="" style="startArrow=none;endArrow=block;exitX=0.5;exitY=1;entryX=0.5;entryY=0;rounded=0;exitDx=0;exitDy=0;strokeColor=#FFFFFF;" edge="1" parent="1" source="A6AokKThXicrLh0-pZuk-699" target="A6AokKThXicrLh0-pZuk-708">
          <mxGeometry relative="1" as="geometry" />
        </mxCell>
        <mxCell id="A6AokKThXicrLh0-pZuk-752" value="" style="startArrow=none;endArrow=block;exitX=0.5;exitY=1;entryX=0.5;entryY=0;rounded=0;entryDx=0;entryDy=0;exitDx=0;exitDy=0;" edge="1" parent="1" source="A6AokKThXicrLh0-pZuk-689" target="A6AokKThXicrLh0-pZuk-695">
          <mxGeometry relative="1" as="geometry" />
        </mxCell>
        <mxCell id="A6AokKThXicrLh0-pZuk-753" value="" style="startArrow=none;endArrow=block;entryX=0.5;entryY=0;rounded=0;entryDx=0;entryDy=0;exitX=0.5;exitY=1;exitDx=0;exitDy=0;strokeColor=#FF66FF;" edge="1" parent="1" source="A6AokKThXicrLh0-pZuk-713" target="A6AokKThXicrLh0-pZuk-691">
          <mxGeometry relative="1" as="geometry">
            <mxPoint x="4520" y="558" as="sourcePoint" />
          </mxGeometry>
        </mxCell>
        <mxCell id="A6AokKThXicrLh0-pZuk-754" value="" style="startArrow=none;endArrow=block;exitX=0.5;exitY=1;entryX=0.5;entryY=0;rounded=0;entryDx=0;entryDy=0;exitDx=0;exitDy=0;strokeColor=#FF66FF;" edge="1" parent="1" source="A6AokKThXicrLh0-pZuk-703" target="A6AokKThXicrLh0-pZuk-711">
          <mxGeometry relative="1" as="geometry" />
        </mxCell>
        <mxCell id="A6AokKThXicrLh0-pZuk-755" value="" style="startArrow=none;endArrow=block;exitX=0.5;exitY=1;entryX=0.5;entryY=0;rounded=0;" edge="1" parent="1" source="A6AokKThXicrLh0-pZuk-707" target="A6AokKThXicrLh0-pZuk-684">
          <mxGeometry relative="1" as="geometry" />
        </mxCell>
        <mxCell id="A6AokKThXicrLh0-pZuk-756" value="" style="endArrow=none;dashed=1;html=1;dashPattern=1 3;strokeWidth=2;rounded=0;" edge="1" parent="1">
          <mxGeometry width="50" height="50" relative="1" as="geometry">
            <mxPoint x="3540" y="638.35" as="sourcePoint" />
            <mxPoint x="4631.666666666667" y="641.17" as="targetPoint" />
          </mxGeometry>
        </mxCell>
        <mxCell id="A6AokKThXicrLh0-pZuk-757" value="&lt;font style=&quot;font-size: 32px;&quot;&gt;P2&lt;/font&gt;" style="edgeLabel;html=1;align=center;verticalAlign=middle;resizable=0;points=[];" vertex="1" connectable="0" parent="A6AokKThXicrLh0-pZuk-756">
          <mxGeometry x="0.9284" y="-2" relative="1" as="geometry">
            <mxPoint x="-1" as="offset" />
          </mxGeometry>
        </mxCell>
        <mxCell id="A6AokKThXicrLh0-pZuk-758" value="" style="endArrow=none;dashed=1;html=1;dashPattern=1 3;strokeWidth=2;rounded=0;" edge="1" parent="1">
          <mxGeometry width="50" height="50" relative="1" as="geometry">
            <mxPoint x="3550" y="528.35" as="sourcePoint" />
            <mxPoint x="4636.496666666667" y="531.17" as="targetPoint" />
          </mxGeometry>
        </mxCell>
        <mxCell id="A6AokKThXicrLh0-pZuk-759" value="&lt;font style=&quot;font-size: 32px;&quot;&gt;P1&lt;/font&gt;" style="edgeLabel;html=1;align=center;verticalAlign=middle;resizable=0;points=[];" vertex="1" connectable="0" parent="A6AokKThXicrLh0-pZuk-758">
          <mxGeometry x="0.9284" y="-2" relative="1" as="geometry">
            <mxPoint x="-1" as="offset" />
          </mxGeometry>
        </mxCell>
        <mxCell id="A6AokKThXicrLh0-pZuk-760" value="" style="endArrow=none;dashed=1;html=1;dashPattern=1 3;strokeWidth=2;rounded=0;" edge="1" parent="1">
          <mxGeometry width="50" height="50" relative="1" as="geometry">
            <mxPoint x="3550" y="430.35" as="sourcePoint" />
            <mxPoint x="4634.086666666667" y="430" as="targetPoint" />
          </mxGeometry>
        </mxCell>
        <mxCell id="A6AokKThXicrLh0-pZuk-761" value="&lt;font style=&quot;font-size: 32px;&quot;&gt;P2&lt;/font&gt;" style="edgeLabel;html=1;align=center;verticalAlign=middle;resizable=0;points=[];" vertex="1" connectable="0" parent="A6AokKThXicrLh0-pZuk-760">
          <mxGeometry x="0.9284" y="-2" relative="1" as="geometry">
            <mxPoint x="-1" as="offset" />
          </mxGeometry>
        </mxCell>
        <mxCell id="A6AokKThXicrLh0-pZuk-762" value="" style="endArrow=none;dashed=1;html=1;dashPattern=1 3;strokeWidth=2;rounded=0;" edge="1" parent="1">
          <mxGeometry width="50" height="50" relative="1" as="geometry">
            <mxPoint x="3540" y="320.35" as="sourcePoint" />
            <mxPoint x="4638.916666666667" y="320" as="targetPoint" />
          </mxGeometry>
        </mxCell>
        <mxCell id="A6AokKThXicrLh0-pZuk-763" value="&lt;font style=&quot;font-size: 32px;&quot;&gt;P1&lt;/font&gt;" style="edgeLabel;html=1;align=center;verticalAlign=middle;resizable=0;points=[];" vertex="1" connectable="0" parent="A6AokKThXicrLh0-pZuk-762">
          <mxGeometry x="0.9284" y="-2" relative="1" as="geometry">
            <mxPoint x="-1" as="offset" />
          </mxGeometry>
        </mxCell>
        <mxCell id="A6AokKThXicrLh0-pZuk-765" value="-2 | 01 | -1" style="whiteSpace=wrap;strokeWidth=2;strokeColor=#990099;" vertex="1" parent="1">
          <mxGeometry x="5300" y="562" width="80" height="30" as="geometry" />
        </mxCell>
        <mxCell id="A6AokKThXicrLh0-pZuk-766" value="-1 | 0110 | 0" style="whiteSpace=wrap;strokeWidth=2;strokeColor=#990099;" vertex="1" parent="1">
          <mxGeometry x="5180" y="360" width="80" height="30" as="geometry" />
        </mxCell>
        <mxCell id="A6AokKThXicrLh0-pZuk-767" value="0 | 1 | 2" style="whiteSpace=wrap;strokeWidth=2;strokeColor=#0066CC;" vertex="1" parent="1">
          <mxGeometry x="4760" y="683" width="80" height="30" as="geometry" />
        </mxCell>
        <mxCell id="A6AokKThXicrLh0-pZuk-768" value="-1 | 001 | -1" style="whiteSpace=wrap;strokeWidth=2;strokeColor=#0066CC;" vertex="1" parent="1">
          <mxGeometry x="5150" y="458" width="80" height="30" as="geometry" />
        </mxCell>
        <mxCell id="A6AokKThXicrLh0-pZuk-769" value="-2 | 1 | 0" style="whiteSpace=wrap;strokeWidth=2;strokeColor=#0066CC;" vertex="1" parent="1">
          <mxGeometry x="5210" y="683" width="80" height="30" as="geometry" />
        </mxCell>
        <mxCell id="A6AokKThXicrLh0-pZuk-770" value="0 | 10 | 1" style="whiteSpace=wrap;strokeWidth=2;strokeColor=#990099;" vertex="1" parent="1">
          <mxGeometry x="5385" y="562" width="80" height="30" as="geometry" />
        </mxCell>
        <mxCell id="A6AokKThXicrLh0-pZuk-771" value="-2 | 01 | 1" style="whiteSpace=wrap;strokeWidth=2;strokeColor=#990099;" vertex="1" parent="1">
          <mxGeometry x="5660" y="562" width="80" height="30" as="geometry" />
        </mxCell>
        <mxCell id="A6AokKThXicrLh0-pZuk-772" value="-2 | 11 | 1" style="whiteSpace=wrap;strokeWidth=2;strokeColor=#990099;" vertex="1" parent="1">
          <mxGeometry x="4850" y="562" width="80" height="30" as="geometry" />
        </mxCell>
        <mxCell id="A6AokKThXicrLh0-pZuk-773" value="-2 | 0 | -2" style="whiteSpace=wrap;strokeWidth=2;strokeColor=#FFFF00;" vertex="1" parent="1">
          <mxGeometry x="5300" y="683" width="80" height="30" as="geometry" />
        </mxCell>
        <mxCell id="A6AokKThXicrLh0-pZuk-774" value="0 | 1 | 0" style="whiteSpace=wrap;strokeWidth=2;strokeColor=#FFFF00;" vertex="1" parent="1">
          <mxGeometry x="5385" y="683" width="80" height="30" as="geometry" />
        </mxCell>
        <mxCell id="A6AokKThXicrLh0-pZuk-775" value="-2 | 0 | 2" style="whiteSpace=wrap;strokeWidth=2;strokeColor=#0066CC;" vertex="1" parent="1">
          <mxGeometry x="4850" y="683" width="80" height="30" as="geometry" />
        </mxCell>
        <mxCell id="A6AokKThXicrLh0-pZuk-776" value="0 | 00 | -1" style="whiteSpace=wrap;strokeWidth=2;strokeColor=#990099;" vertex="1" parent="1">
          <mxGeometry x="5570" y="562" width="80" height="30" as="geometry" />
        </mxCell>
        <mxCell id="A6AokKThXicrLh0-pZuk-777" value="0 | 0 | -2" style="whiteSpace=wrap;strokeWidth=2;strokeColor=#00CC00;" vertex="1" parent="1">
          <mxGeometry x="5030" y="683" width="80" height="30" as="geometry" />
        </mxCell>
        <mxCell id="A6AokKThXicrLh0-pZuk-778" value="-1 | 0101 | 0" style="whiteSpace=wrap;strokeWidth=2;strokeColor=#990099;" vertex="1" parent="1">
          <mxGeometry x="5360" y="360" width="80" height="30" as="geometry" />
        </mxCell>
        <mxCell id="A6AokKThXicrLh0-pZuk-779" value="0 | 01 | 1" style="whiteSpace=wrap;strokeWidth=2;strokeColor=#990099;" vertex="1" parent="1">
          <mxGeometry x="5480" y="562" width="80" height="30" as="geometry" />
        </mxCell>
        <mxCell id="A6AokKThXicrLh0-pZuk-780" value="0 | 0 | 0" style="whiteSpace=wrap;strokeWidth=2;strokeColor=#FFFF00;" vertex="1" parent="1">
          <mxGeometry x="5120" y="683" width="80" height="30" as="geometry" />
        </mxCell>
        <mxCell id="A6AokKThXicrLh0-pZuk-781" value="-2 | 00 | -1" style="whiteSpace=wrap;strokeWidth=2;strokeColor=#990099;" vertex="1" parent="1">
          <mxGeometry x="5210" y="562" width="80" height="30" as="geometry" />
        </mxCell>
        <mxCell id="A6AokKThXicrLh0-pZuk-782" value="-1 | 011 | -1" style="whiteSpace=wrap;strokeWidth=2;strokeColor=#0066CC;" vertex="1" parent="1">
          <mxGeometry x="5420" y="458" width="80" height="30" as="geometry" />
        </mxCell>
        <mxCell id="A6AokKThXicrLh0-pZuk-783" value="-1 | 0010 | 0" style="whiteSpace=wrap;strokeWidth=2;strokeColor=#990099;" vertex="1" parent="1">
          <mxGeometry x="5090" y="360" width="80" height="30" as="geometry" />
        </mxCell>
        <mxCell id="A6AokKThXicrLh0-pZuk-784" value="0 | 11 | -1" style="whiteSpace=wrap;strokeWidth=2;strokeColor=#990099;" vertex="1" parent="1">
          <mxGeometry x="5120" y="562" width="80" height="30" as="geometry" />
        </mxCell>
        <mxCell id="A6AokKThXicrLh0-pZuk-785" value="-1 | 010 | -1" style="whiteSpace=wrap;strokeWidth=2;strokeColor=#0066CC;" vertex="1" parent="1">
          <mxGeometry x="5240" y="458" width="80" height="30" as="geometry" />
        </mxCell>
        <mxCell id="A6AokKThXicrLh0-pZuk-786" value="-1 | 000 | -1" style="whiteSpace=wrap;strokeWidth=2;strokeColor=#0066CC;" vertex="1" parent="1">
          <mxGeometry x="5060" y="458" width="80" height="30" as="geometry" />
        </mxCell>
        <mxCell id="A6AokKThXicrLh0-pZuk-787" value="-1 | 0100 | 0" style="whiteSpace=wrap;strokeWidth=2;strokeColor=#990099;" vertex="1" parent="1">
          <mxGeometry x="5270" y="360" width="80" height="30" as="geometry" />
        </mxCell>
        <mxCell id="A6AokKThXicrLh0-pZuk-788" value="0 | 00 | 1" style="whiteSpace=wrap;strokeWidth=2;strokeColor=#990099;" vertex="1" parent="1">
          <mxGeometry x="4760" y="562" width="80" height="30" as="geometry" />
        </mxCell>
        <mxCell id="A6AokKThXicrLh0-pZuk-789" value="-2 | 0 | 0" style="whiteSpace=wrap;strokeWidth=2;strokeColor=#0066CC;" vertex="1" parent="1">
          <mxGeometry x="5660" y="683" width="80" height="30" as="geometry" />
        </mxCell>
        <mxCell id="A6AokKThXicrLh0-pZuk-790" value="-1 | 011 | 1" style="whiteSpace=wrap;strokeWidth=2;strokeColor=#0066CC;" vertex="1" parent="1">
          <mxGeometry x="5510" y="458" width="80" height="30" as="geometry" />
        </mxCell>
        <mxCell id="A6AokKThXicrLh0-pZuk-791" value="0 | 1 | -2" style="whiteSpace=wrap;strokeWidth=2;strokeColor=#00CC00;" vertex="1" parent="1">
          <mxGeometry x="4940" y="683" width="80" height="30" as="geometry" />
        </mxCell>
        <mxCell id="A6AokKThXicrLh0-pZuk-792" value="0 | 01010 | 0" style="whiteSpace=wrap;strokeWidth=2;strokeColor=#0066CC;" vertex="1" parent="1">
          <mxGeometry x="5230" y="250" width="80" height="30" as="geometry" />
        </mxCell>
        <mxCell id="A6AokKThXicrLh0-pZuk-793" value="-1 | 000 | 1" style="whiteSpace=wrap;strokeWidth=2;strokeColor=#0066CC;" vertex="1" parent="1">
          <mxGeometry x="5330" y="458" width="80" height="30" as="geometry" />
        </mxCell>
        <mxCell id="A6AokKThXicrLh0-pZuk-794" value="0 | 10 | -1" style="whiteSpace=wrap;strokeWidth=2;strokeColor=#990099;" vertex="1" parent="1">
          <mxGeometry x="4940" y="562" width="80" height="30" as="geometry" />
        </mxCell>
        <mxCell id="A6AokKThXicrLh0-pZuk-795" value="-1 | 110 | 1" style="whiteSpace=wrap;strokeWidth=2;strokeColor=#0066CC;" vertex="1" parent="1">
          <mxGeometry x="4970" y="458" width="80" height="30" as="geometry" />
        </mxCell>
        <mxCell id="A6AokKThXicrLh0-pZuk-796" value="0 | 01 | -1" style="whiteSpace=wrap;strokeWidth=2;strokeColor=#990099;" vertex="1" parent="1">
          <mxGeometry x="5030" y="562" width="80" height="30" as="geometry" />
        </mxCell>
        <mxCell id="A6AokKThXicrLh0-pZuk-797" value="" style="startArrow=none;endArrow=block;exitX=0.21;exitY=1;entryX=0.5;entryY=0;rounded=0;" edge="1" parent="1" source="A6AokKThXicrLh0-pZuk-790" target="A6AokKThXicrLh0-pZuk-771">
          <mxGeometry relative="1" as="geometry" />
        </mxCell>
        <mxCell id="A6AokKThXicrLh0-pZuk-798" value="" style="startArrow=none;endArrow=block;exitX=0.5;exitY=1;rounded=0;entryX=0.438;entryY=0.017;entryDx=0;entryDy=0;entryPerimeter=0;exitDx=0;exitDy=0;" edge="1" parent="1" source="A6AokKThXicrLh0-pZuk-785" target="A6AokKThXicrLh0-pZuk-781">
          <mxGeometry relative="1" as="geometry">
            <mxPoint x="5250" y="562" as="targetPoint" />
          </mxGeometry>
        </mxCell>
        <mxCell id="A6AokKThXicrLh0-pZuk-799" value="" style="startArrow=none;endArrow=block;exitX=0.5;exitY=1;entryX=0.5;entryY=0;rounded=0;" edge="1" parent="1" source="A6AokKThXicrLh0-pZuk-771" target="A6AokKThXicrLh0-pZuk-789">
          <mxGeometry relative="1" as="geometry" />
        </mxCell>
        <mxCell id="A6AokKThXicrLh0-pZuk-800" value="" style="startArrow=none;endArrow=block;exitX=0.49;exitY=1;entryX=0.5;entryY=0;rounded=0;entryDx=0;entryDy=0;strokeColor=#FF66FF;" edge="1" parent="1" source="A6AokKThXicrLh0-pZuk-784" target="A6AokKThXicrLh0-pZuk-780">
          <mxGeometry relative="1" as="geometry" />
        </mxCell>
        <mxCell id="A6AokKThXicrLh0-pZuk-801" value="" style="startArrow=none;endArrow=block;exitX=0.5;exitY=1;entryX=0.5;entryY=0;rounded=0;exitDx=0;exitDy=0;strokeColor=#33FFFF;" edge="1" parent="1" source="A6AokKThXicrLh0-pZuk-778" target="A6AokKThXicrLh0-pZuk-768">
          <mxGeometry relative="1" as="geometry" />
        </mxCell>
        <mxCell id="A6AokKThXicrLh0-pZuk-802" value="" style="startArrow=none;endArrow=block;exitX=0.5;exitY=1;entryX=0.5;entryY=0;rounded=0;exitDx=0;exitDy=0;strokeColor=#FFFF00;strokeWidth=2;" edge="1" parent="1" source="A6AokKThXicrLh0-pZuk-792" target="A6AokKThXicrLh0-pZuk-766">
          <mxGeometry relative="1" as="geometry" />
        </mxCell>
        <mxCell id="A6AokKThXicrLh0-pZuk-803" value="" style="startArrow=none;endArrow=block;exitX=0.5;exitY=1;entryX=0.5;entryY=0;rounded=0;strokeColor=#FFFFFF;" edge="1" parent="1" source="A6AokKThXicrLh0-pZuk-794" target="A6AokKThXicrLh0-pZuk-791">
          <mxGeometry relative="1" as="geometry" />
        </mxCell>
        <mxCell id="A6AokKThXicrLh0-pZuk-804" value="" style="startArrow=none;endArrow=block;exitX=0.5;exitY=1;entryX=0.5;entryY=0;rounded=0;entryDx=0;entryDy=0;exitDx=0;exitDy=0;strokeColor=#33FFFF;strokeWidth=2;" edge="1" parent="1" source="A6AokKThXicrLh0-pZuk-770" target="A6AokKThXicrLh0-pZuk-774">
          <mxGeometry relative="1" as="geometry">
            <mxPoint x="5395" y="595" as="sourcePoint" />
          </mxGeometry>
        </mxCell>
        <mxCell id="A6AokKThXicrLh0-pZuk-805" value="" style="startArrow=none;endArrow=block;exitX=0.5;exitY=1;entryX=0.5;entryY=0;rounded=0;strokeColor=#FFFFFF;" edge="1" parent="1" source="A6AokKThXicrLh0-pZuk-796" target="A6AokKThXicrLh0-pZuk-777">
          <mxGeometry relative="1" as="geometry" />
        </mxCell>
        <mxCell id="A6AokKThXicrLh0-pZuk-806" value="" style="startArrow=none;endArrow=block;exitX=0.5;exitY=1;entryX=0.5;entryY=0;rounded=0;exitDx=0;exitDy=0;strokeColor=#FFFFFF;strokeWidth=1;" edge="1" parent="1" source="A6AokKThXicrLh0-pZuk-792" target="A6AokKThXicrLh0-pZuk-787">
          <mxGeometry relative="1" as="geometry" />
        </mxCell>
        <mxCell id="A6AokKThXicrLh0-pZuk-807" value="" style="startArrow=none;endArrow=block;exitX=0.5;exitY=1;entryX=0.5;entryY=0;rounded=0;exitDx=0;exitDy=0;entryDx=0;entryDy=0;strokeColor=#FF66FF;" edge="1" parent="1" source="A6AokKThXicrLh0-pZuk-785" target="A6AokKThXicrLh0-pZuk-765">
          <mxGeometry relative="1" as="geometry" />
        </mxCell>
        <mxCell id="A6AokKThXicrLh0-pZuk-808" value="" style="startArrow=none;endArrow=block;exitX=0.5;exitY=1;entryX=0.5;entryY=0;rounded=0;exitDx=0;exitDy=0;strokeColor=#FFFF00;strokeWidth=2;" edge="1" parent="1" source="A6AokKThXicrLh0-pZuk-793" target="A6AokKThXicrLh0-pZuk-770">
          <mxGeometry relative="1" as="geometry" />
        </mxCell>
        <mxCell id="A6AokKThXicrLh0-pZuk-809" value="" style="startArrow=none;endArrow=block;exitX=0.5;exitY=1;entryX=0.5;entryY=0;rounded=0;exitDx=0;exitDy=0;strokeColor=#FF66FF;" edge="1" parent="1" source="A6AokKThXicrLh0-pZuk-782" target="A6AokKThXicrLh0-pZuk-776">
          <mxGeometry relative="1" as="geometry" />
        </mxCell>
        <mxCell id="A6AokKThXicrLh0-pZuk-810" value="" style="startArrow=none;endArrow=block;exitX=0.5;exitY=1;entryX=0.5;entryY=0;rounded=0;exitDx=0;exitDy=0;entryDx=0;entryDy=0;" edge="1" parent="1" source="A6AokKThXicrLh0-pZuk-768" target="A6AokKThXicrLh0-pZuk-781">
          <mxGeometry relative="1" as="geometry" />
        </mxCell>
        <mxCell id="A6AokKThXicrLh0-pZuk-811" value="" style="startArrow=none;endArrow=block;exitX=0.5;exitY=1;entryX=0.5;entryY=0;rounded=0;exitDx=0;exitDy=0;strokeColor=#FFFFFF;strokeWidth=1;" edge="1" parent="1" source="A6AokKThXicrLh0-pZuk-787" target="A6AokKThXicrLh0-pZuk-790">
          <mxGeometry relative="1" as="geometry" />
        </mxCell>
        <mxCell id="A6AokKThXicrLh0-pZuk-812" value="" style="startArrow=none;endArrow=block;exitX=0.49;exitY=1;entryX=0.5;entryY=0;rounded=0;strokeColor=#FFFFFF;strokeWidth=1;" edge="1" parent="1" source="A6AokKThXicrLh0-pZuk-772" target="A6AokKThXicrLh0-pZuk-775">
          <mxGeometry relative="1" as="geometry" />
        </mxCell>
        <mxCell id="A6AokKThXicrLh0-pZuk-813" value="" style="startArrow=none;endArrow=block;exitX=0.5;exitY=1;rounded=0;entryX=0.5;entryY=0;entryDx=0;entryDy=0;exitDx=0;exitDy=0;" edge="1" parent="1" source="A6AokKThXicrLh0-pZuk-787" target="A6AokKThXicrLh0-pZuk-785">
          <mxGeometry relative="1" as="geometry">
            <mxPoint x="5610" y="450" as="targetPoint" />
          </mxGeometry>
        </mxCell>
        <mxCell id="A6AokKThXicrLh0-pZuk-814" value="" style="startArrow=none;endArrow=block;exitX=0.5;exitY=1;entryX=0.5;entryY=0;rounded=0;strokeColor=#FF66FF;" edge="1" parent="1" source="A6AokKThXicrLh0-pZuk-765" target="A6AokKThXicrLh0-pZuk-773">
          <mxGeometry relative="1" as="geometry" />
        </mxCell>
        <mxCell id="A6AokKThXicrLh0-pZuk-815" value="" style="startArrow=none;endArrow=block;exitX=0.5;exitY=1;entryX=0.5;entryY=0;rounded=0;entryDx=0;entryDy=0;exitDx=0;exitDy=0;" edge="1" parent="1" source="A6AokKThXicrLh0-pZuk-783" target="A6AokKThXicrLh0-pZuk-768">
          <mxGeometry relative="1" as="geometry" />
        </mxCell>
        <mxCell id="A6AokKThXicrLh0-pZuk-816" value="" style="startArrow=none;endArrow=block;exitX=0.5;exitY=1;entryX=0.5;entryY=0;rounded=0;exitDx=0;exitDy=0;strokeColor=#FFFFFF;" edge="1" parent="1" source="A6AokKThXicrLh0-pZuk-786" target="A6AokKThXicrLh0-pZuk-796">
          <mxGeometry relative="1" as="geometry" />
        </mxCell>
        <mxCell id="A6AokKThXicrLh0-pZuk-817" value="" style="startArrow=none;endArrow=block;exitX=0.5;exitY=1;entryX=0.5;entryY=0;rounded=0;" edge="1" parent="1" source="A6AokKThXicrLh0-pZuk-788" target="A6AokKThXicrLh0-pZuk-767">
          <mxGeometry relative="1" as="geometry" />
        </mxCell>
        <mxCell id="A6AokKThXicrLh0-pZuk-818" value="" style="startArrow=none;endArrow=block;exitX=0.5;exitY=1;entryX=0.5;entryY=0;rounded=0;exitDx=0;exitDy=0;strokeColor=#FFFFFF;strokeWidth=1;" edge="1" parent="1" source="A6AokKThXicrLh0-pZuk-792" target="A6AokKThXicrLh0-pZuk-783">
          <mxGeometry relative="1" as="geometry" />
        </mxCell>
        <mxCell id="A6AokKThXicrLh0-pZuk-819" value="" style="startArrow=none;endArrow=block;exitX=0.5;exitY=1;entryX=0.5;entryY=0;rounded=0;exitDx=0;exitDy=0;strokeColor=#FF66FF;" edge="1" parent="1" source="A6AokKThXicrLh0-pZuk-782" target="A6AokKThXicrLh0-pZuk-765">
          <mxGeometry relative="1" as="geometry" />
        </mxCell>
        <mxCell id="A6AokKThXicrLh0-pZuk-820" value="" style="startArrow=none;endArrow=block;exitX=0.83;exitY=1;entryX=0.46;entryY=0;rounded=0;" edge="1" parent="1" source="A6AokKThXicrLh0-pZuk-790" target="A6AokKThXicrLh0-pZuk-788">
          <mxGeometry relative="1" as="geometry" />
        </mxCell>
        <mxCell id="A6AokKThXicrLh0-pZuk-821" value="" style="startArrow=none;endArrow=block;exitX=0.5;exitY=1;entryX=0.5;entryY=0;rounded=0;exitDx=0;exitDy=0;strokeColor=#FFFFFF;" edge="1" parent="1" source="A6AokKThXicrLh0-pZuk-786" target="A6AokKThXicrLh0-pZuk-794">
          <mxGeometry relative="1" as="geometry" />
        </mxCell>
        <mxCell id="A6AokKThXicrLh0-pZuk-822" value="" style="startArrow=none;endArrow=block;exitX=0.5;exitY=1;entryX=0.5;entryY=0;rounded=0;exitDx=0;exitDy=0;entryDx=0;entryDy=0;" edge="1" parent="1" source="A6AokKThXicrLh0-pZuk-787" target="A6AokKThXicrLh0-pZuk-786">
          <mxGeometry relative="1" as="geometry" />
        </mxCell>
        <mxCell id="A6AokKThXicrLh0-pZuk-823" value="" style="startArrow=none;endArrow=block;exitX=0.5;exitY=1;rounded=0;exitDx=0;exitDy=0;entryX=0.5;entryY=0;entryDx=0;entryDy=0;strokeColor=#33FFFF;" edge="1" parent="1" source="A6AokKThXicrLh0-pZuk-778" target="A6AokKThXicrLh0-pZuk-785">
          <mxGeometry relative="1" as="geometry">
            <mxPoint x="5590" y="430" as="targetPoint" />
          </mxGeometry>
        </mxCell>
        <mxCell id="A6AokKThXicrLh0-pZuk-824" value="" style="startArrow=none;endArrow=block;exitX=0.5;exitY=1;entryX=0.5;entryY=0;rounded=0;exitDx=0;exitDy=0;entryDx=0;entryDy=0;strokeColor=#33FFFF;" edge="1" parent="1" source="A6AokKThXicrLh0-pZuk-778" target="A6AokKThXicrLh0-pZuk-782">
          <mxGeometry relative="1" as="geometry" />
        </mxCell>
        <mxCell id="A6AokKThXicrLh0-pZuk-825" value="" style="startArrow=none;endArrow=block;exitX=0.5;exitY=1;entryX=0.5;entryY=0;rounded=0;exitDx=0;exitDy=0;strokeColor=#33FFFF;strokeWidth=2;" edge="1" parent="1" source="A6AokKThXicrLh0-pZuk-766" target="A6AokKThXicrLh0-pZuk-793">
          <mxGeometry relative="1" as="geometry" />
        </mxCell>
        <mxCell id="A6AokKThXicrLh0-pZuk-826" value="" style="startArrow=none;endArrow=block;exitX=0.5;exitY=1;entryX=0.5;entryY=0;rounded=0;" edge="1" parent="1" source="A6AokKThXicrLh0-pZuk-781" target="A6AokKThXicrLh0-pZuk-769">
          <mxGeometry relative="1" as="geometry" />
        </mxCell>
        <mxCell id="A6AokKThXicrLh0-pZuk-827" value="" style="startArrow=none;endArrow=block;exitX=0.5;exitY=1;entryX=0.5;entryY=0;rounded=0;entryDx=0;entryDy=0;exitDx=0;exitDy=0;" edge="1" parent="1" source="A6AokKThXicrLh0-pZuk-795" target="A6AokKThXicrLh0-pZuk-788">
          <mxGeometry relative="1" as="geometry" />
        </mxCell>
        <mxCell id="A6AokKThXicrLh0-pZuk-828" value="" style="startArrow=none;endArrow=block;exitX=0.5;exitY=1;entryX=0.5;entryY=0;rounded=0;exitDx=0;exitDy=0;strokeColor=#FFFFFF;strokeWidth=1;" edge="1" parent="1" source="A6AokKThXicrLh0-pZuk-783" target="A6AokKThXicrLh0-pZuk-795">
          <mxGeometry relative="1" as="geometry" />
        </mxCell>
        <mxCell id="A6AokKThXicrLh0-pZuk-829" value="" style="startArrow=none;endArrow=block;exitX=0.5;exitY=1;entryX=0.5;entryY=0;rounded=0;strokeColor=#33FFFF;strokeWidth=2;" edge="1" parent="1" source="A6AokKThXicrLh0-pZuk-779" target="A6AokKThXicrLh0-pZuk-780">
          <mxGeometry relative="1" as="geometry" />
        </mxCell>
        <mxCell id="A6AokKThXicrLh0-pZuk-830" value="" style="startArrow=none;endArrow=block;exitX=0.5;exitY=1;entryX=0.49;entryY=0;rounded=0;exitDx=0;exitDy=0;strokeColor=#FFFFFF;strokeWidth=1;" edge="1" parent="1" source="A6AokKThXicrLh0-pZuk-795" target="A6AokKThXicrLh0-pZuk-772">
          <mxGeometry relative="1" as="geometry" />
        </mxCell>
        <mxCell id="A6AokKThXicrLh0-pZuk-831" value="" style="startArrow=none;endArrow=block;exitX=0.5;exitY=1;entryX=0.5;entryY=0;rounded=0;exitDx=0;exitDy=0;strokeColor=#FFFF00;strokeWidth=2;" edge="1" parent="1" source="A6AokKThXicrLh0-pZuk-793" target="A6AokKThXicrLh0-pZuk-779">
          <mxGeometry relative="1" as="geometry" />
        </mxCell>
        <mxCell id="A6AokKThXicrLh0-pZuk-832" value="" style="startArrow=none;endArrow=block;exitX=0.5;exitY=1;rounded=0;entryX=0.5;entryY=0;entryDx=0;entryDy=0;strokeColor=#FF66FF;" edge="1" parent="1" source="A6AokKThXicrLh0-pZuk-776" target="A6AokKThXicrLh0-pZuk-774">
          <mxGeometry relative="1" as="geometry">
            <mxPoint x="5465" y="673" as="targetPoint" />
          </mxGeometry>
        </mxCell>
        <mxCell id="A6AokKThXicrLh0-pZuk-833" value="" style="startArrow=none;endArrow=block;exitX=0.5;exitY=1;entryX=0.5;entryY=0;rounded=0;exitDx=0;exitDy=0;entryDx=0;entryDy=0;" edge="1" parent="1" source="A6AokKThXicrLh0-pZuk-766" target="A6AokKThXicrLh0-pZuk-785">
          <mxGeometry relative="1" as="geometry" />
        </mxCell>
        <mxCell id="A6AokKThXicrLh0-pZuk-834" value="" style="startArrow=none;endArrow=block;exitX=0.5;exitY=1;entryX=0.5;entryY=0;rounded=0;exitDx=0;exitDy=0;entryDx=0;entryDy=0;" edge="1" parent="1" source="A6AokKThXicrLh0-pZuk-766" target="A6AokKThXicrLh0-pZuk-782">
          <mxGeometry relative="1" as="geometry" />
        </mxCell>
        <mxCell id="A6AokKThXicrLh0-pZuk-835" value="" style="startArrow=none;endArrow=block;entryX=0.49;entryY=0;rounded=0;exitX=0.5;exitY=1;exitDx=0;exitDy=0;strokeColor=#FF66FF;" edge="1" parent="1" source="A6AokKThXicrLh0-pZuk-768" target="A6AokKThXicrLh0-pZuk-784">
          <mxGeometry relative="1" as="geometry">
            <mxPoint x="5150" y="510" as="sourcePoint" />
          </mxGeometry>
        </mxCell>
        <mxCell id="A6AokKThXicrLh0-pZuk-836" value="" style="startArrow=none;endArrow=block;exitX=0.5;exitY=1;entryX=0.5;entryY=0;rounded=0;entryDx=0;entryDy=0;exitDx=0;exitDy=0;" edge="1" parent="1" source="A6AokKThXicrLh0-pZuk-783" target="A6AokKThXicrLh0-pZuk-786">
          <mxGeometry relative="1" as="geometry" />
        </mxCell>
        <mxCell id="A6AokKThXicrLh0-pZuk-837" value="" style="startArrow=none;endArrow=block;exitX=0.5;exitY=1;entryX=0.5;entryY=0;rounded=0;exitDx=0;exitDy=0;strokeColor=#FF66FF;" edge="1" parent="1" source="A6AokKThXicrLh0-pZuk-792" target="A6AokKThXicrLh0-pZuk-778">
          <mxGeometry relative="1" as="geometry" />
        </mxCell>
        <mxCell id="A6AokKThXicrLh0-pZuk-838" value="" style="endArrow=none;dashed=1;html=1;dashPattern=1 3;strokeWidth=2;rounded=0;" edge="1" parent="1">
          <mxGeometry width="50" height="50" relative="1" as="geometry">
            <mxPoint x="4753" y="638.35" as="sourcePoint" />
            <mxPoint x="5844.666666666667" y="641.17" as="targetPoint" />
          </mxGeometry>
        </mxCell>
        <mxCell id="A6AokKThXicrLh0-pZuk-839" value="&lt;font style=&quot;font-size: 32px;&quot;&gt;P2&lt;/font&gt;" style="edgeLabel;html=1;align=center;verticalAlign=middle;resizable=0;points=[];" vertex="1" connectable="0" parent="A6AokKThXicrLh0-pZuk-838">
          <mxGeometry x="0.9284" y="-2" relative="1" as="geometry">
            <mxPoint x="-1" as="offset" />
          </mxGeometry>
        </mxCell>
        <mxCell id="A6AokKThXicrLh0-pZuk-840" value="" style="endArrow=none;dashed=1;html=1;dashPattern=1 3;strokeWidth=2;rounded=0;" edge="1" parent="1">
          <mxGeometry width="50" height="50" relative="1" as="geometry">
            <mxPoint x="4759" y="528.35" as="sourcePoint" />
            <mxPoint x="5845.496666666667" y="531.17" as="targetPoint" />
          </mxGeometry>
        </mxCell>
        <mxCell id="A6AokKThXicrLh0-pZuk-841" value="&lt;font style=&quot;font-size: 32px;&quot;&gt;P1&lt;/font&gt;" style="edgeLabel;html=1;align=center;verticalAlign=middle;resizable=0;points=[];" vertex="1" connectable="0" parent="A6AokKThXicrLh0-pZuk-840">
          <mxGeometry x="0.9284" y="-2" relative="1" as="geometry">
            <mxPoint x="-1" as="offset" />
          </mxGeometry>
        </mxCell>
        <mxCell id="A6AokKThXicrLh0-pZuk-842" value="" style="endArrow=none;dashed=1;html=1;dashPattern=1 3;strokeWidth=2;rounded=0;" edge="1" parent="1">
          <mxGeometry width="50" height="50" relative="1" as="geometry">
            <mxPoint x="4761" y="430.35" as="sourcePoint" />
            <mxPoint x="5845.086666666667" y="430" as="targetPoint" />
          </mxGeometry>
        </mxCell>
        <mxCell id="A6AokKThXicrLh0-pZuk-843" value="&lt;font style=&quot;font-size: 32px;&quot;&gt;P2&lt;/font&gt;" style="edgeLabel;html=1;align=center;verticalAlign=middle;resizable=0;points=[];" vertex="1" connectable="0" parent="A6AokKThXicrLh0-pZuk-842">
          <mxGeometry x="0.9284" y="-2" relative="1" as="geometry">
            <mxPoint x="-1" as="offset" />
          </mxGeometry>
        </mxCell>
        <mxCell id="A6AokKThXicrLh0-pZuk-844" value="" style="endArrow=none;dashed=1;html=1;dashPattern=1 3;strokeWidth=2;rounded=0;" edge="1" parent="1">
          <mxGeometry width="50" height="50" relative="1" as="geometry">
            <mxPoint x="4746" y="320.35" as="sourcePoint" />
            <mxPoint x="5844.916666666667" y="320" as="targetPoint" />
          </mxGeometry>
        </mxCell>
        <mxCell id="A6AokKThXicrLh0-pZuk-845" value="&lt;font style=&quot;font-size: 32px;&quot;&gt;P1&lt;/font&gt;" style="edgeLabel;html=1;align=center;verticalAlign=middle;resizable=0;points=[];" vertex="1" connectable="0" parent="A6AokKThXicrLh0-pZuk-844">
          <mxGeometry x="0.9284" y="-2" relative="1" as="geometry">
            <mxPoint x="-1" as="offset" />
          </mxGeometry>
        </mxCell>
        <mxCell id="A6AokKThXicrLh0-pZuk-919" value="" style="endArrow=none;dashed=1;html=1;dashPattern=1 3;strokeWidth=2;rounded=0;" edge="1" parent="1">
          <mxGeometry width="50" height="50" relative="1" as="geometry">
            <mxPoint x="5917" y="638.35" as="sourcePoint" />
            <mxPoint x="7008.666666666667" y="641.17" as="targetPoint" />
          </mxGeometry>
        </mxCell>
        <mxCell id="A6AokKThXicrLh0-pZuk-920" value="&lt;font style=&quot;font-size: 32px;&quot;&gt;P2&lt;/font&gt;" style="edgeLabel;html=1;align=center;verticalAlign=middle;resizable=0;points=[];" vertex="1" connectable="0" parent="A6AokKThXicrLh0-pZuk-919">
          <mxGeometry x="0.9284" y="-2" relative="1" as="geometry">
            <mxPoint x="-1" as="offset" />
          </mxGeometry>
        </mxCell>
        <mxCell id="A6AokKThXicrLh0-pZuk-921" value="" style="endArrow=none;dashed=1;html=1;dashPattern=1 3;strokeWidth=2;rounded=0;" edge="1" parent="1">
          <mxGeometry width="50" height="50" relative="1" as="geometry">
            <mxPoint x="5923" y="528.35" as="sourcePoint" />
            <mxPoint x="7009.496666666667" y="531.17" as="targetPoint" />
          </mxGeometry>
        </mxCell>
        <mxCell id="A6AokKThXicrLh0-pZuk-922" value="&lt;font style=&quot;font-size: 32px;&quot;&gt;P1&lt;/font&gt;" style="edgeLabel;html=1;align=center;verticalAlign=middle;resizable=0;points=[];" vertex="1" connectable="0" parent="A6AokKThXicrLh0-pZuk-921">
          <mxGeometry x="0.9284" y="-2" relative="1" as="geometry">
            <mxPoint x="-1" as="offset" />
          </mxGeometry>
        </mxCell>
        <mxCell id="A6AokKThXicrLh0-pZuk-923" value="" style="endArrow=none;dashed=1;html=1;dashPattern=1 3;strokeWidth=2;rounded=0;" edge="1" parent="1">
          <mxGeometry width="50" height="50" relative="1" as="geometry">
            <mxPoint x="5925" y="430.35" as="sourcePoint" />
            <mxPoint x="7009.086666666667" y="430" as="targetPoint" />
          </mxGeometry>
        </mxCell>
        <mxCell id="A6AokKThXicrLh0-pZuk-924" value="&lt;font style=&quot;font-size: 32px;&quot;&gt;P2&lt;/font&gt;" style="edgeLabel;html=1;align=center;verticalAlign=middle;resizable=0;points=[];" vertex="1" connectable="0" parent="A6AokKThXicrLh0-pZuk-923">
          <mxGeometry x="0.9284" y="-2" relative="1" as="geometry">
            <mxPoint x="-1" as="offset" />
          </mxGeometry>
        </mxCell>
        <mxCell id="A6AokKThXicrLh0-pZuk-925" value="" style="endArrow=none;dashed=1;html=1;dashPattern=1 3;strokeWidth=2;rounded=0;" edge="1" parent="1">
          <mxGeometry width="50" height="50" relative="1" as="geometry">
            <mxPoint x="5910" y="320.35" as="sourcePoint" />
            <mxPoint x="7008.916666666667" y="320" as="targetPoint" />
          </mxGeometry>
        </mxCell>
        <mxCell id="A6AokKThXicrLh0-pZuk-926" value="&lt;font style=&quot;font-size: 32px;&quot;&gt;P1&lt;/font&gt;" style="edgeLabel;html=1;align=center;verticalAlign=middle;resizable=0;points=[];" vertex="1" connectable="0" parent="A6AokKThXicrLh0-pZuk-925">
          <mxGeometry x="0.9284" y="-2" relative="1" as="geometry">
            <mxPoint x="-1" as="offset" />
          </mxGeometry>
        </mxCell>
        <mxCell id="A6AokKThXicrLh0-pZuk-927" value="1 | 0010 | 0" style="whiteSpace=wrap;strokeWidth=2;strokeColor=#990099;" vertex="1" parent="1">
          <mxGeometry x="6539" y="340" width="80" height="30" as="geometry" />
        </mxCell>
        <mxCell id="A6AokKThXicrLh0-pZuk-928" value="0 | 0 | -2" style="whiteSpace=wrap;strokeWidth=2;strokeColor=#00CC00;" vertex="1" parent="1">
          <mxGeometry x="6447" y="670" width="80" height="30" as="geometry" />
        </mxCell>
        <mxCell id="A6AokKThXicrLh0-pZuk-929" value="2 | 0 | -2" style="whiteSpace=wrap;strokeWidth=2;strokeColor=#00CC00;" vertex="1" parent="1">
          <mxGeometry x="6093" y="670" width="80" height="30" as="geometry" />
        </mxCell>
        <mxCell id="A6AokKThXicrLh0-pZuk-930" value="1 | 101 | 1" style="whiteSpace=wrap;strokeWidth=2;strokeColor=#0066CC;" vertex="1" parent="1">
          <mxGeometry x="6350" y="450" width="80" height="30" as="geometry" />
        </mxCell>
        <mxCell id="A6AokKThXicrLh0-pZuk-931" value="1 | 0001 | 0" style="whiteSpace=wrap;strokeWidth=2;strokeColor=#990099;" vertex="1" parent="1">
          <mxGeometry x="6040" y="340" width="80" height="30" as="geometry" />
        </mxCell>
        <mxCell id="A6AokKThXicrLh0-pZuk-932" value="2 | 1 | 2" style="whiteSpace=wrap;strokeWidth=2;strokeColor=#FFFF00;" vertex="1" parent="1">
          <mxGeometry x="6177" y="670" width="80" height="30" as="geometry" />
        </mxCell>
        <mxCell id="A6AokKThXicrLh0-pZuk-933" value="1 | 001 | -1" style="whiteSpace=wrap;strokeWidth=2;strokeColor=#0066CC;" vertex="1" parent="1">
          <mxGeometry x="6670" y="450" width="80" height="30" as="geometry" />
        </mxCell>
        <mxCell id="A6AokKThXicrLh0-pZuk-934" value="2 | 10 | -1" style="whiteSpace=wrap;strokeWidth=2;strokeColor=#990099;" vertex="1" parent="1">
          <mxGeometry x="6000" y="562" width="80" height="30" as="geometry" />
        </mxCell>
        <mxCell id="A6AokKThXicrLh0-pZuk-935" value="0 | 10 | 1" style="whiteSpace=wrap;strokeWidth=2;strokeColor=#990099;" vertex="1" parent="1">
          <mxGeometry x="6539" y="562" width="80" height="30" as="geometry" />
        </mxCell>
        <mxCell id="A6AokKThXicrLh0-pZuk-936" value="1 | 000 | -1" style="whiteSpace=wrap;strokeWidth=2;strokeColor=#0066CC;" vertex="1" parent="1">
          <mxGeometry x="6040" y="450" width="80" height="30" as="geometry" />
        </mxCell>
        <mxCell id="A6AokKThXicrLh0-pZuk-937" value="0 | 0 | 2" style="whiteSpace=wrap;strokeWidth=2;strokeColor=#0066CC;" vertex="1" parent="1">
          <mxGeometry x="6357" y="670" width="80" height="30" as="geometry" />
        </mxCell>
        <mxCell id="A6AokKThXicrLh0-pZuk-938" value="2 | 1 | -2" style="whiteSpace=wrap;strokeWidth=2;strokeColor=#00CC00;" vertex="1" parent="1">
          <mxGeometry x="6000" y="670" width="80" height="30" as="geometry" />
        </mxCell>
        <mxCell id="A6AokKThXicrLh0-pZuk-939" value="1 | 100 | -1" style="whiteSpace=wrap;strokeWidth=2;strokeColor=#0066CC;" vertex="1" parent="1">
          <mxGeometry x="6810" y="450" width="80" height="30" as="geometry" />
        </mxCell>
        <mxCell id="A6AokKThXicrLh0-pZuk-940" value="0 | 10 | -1" style="whiteSpace=wrap;strokeWidth=2;strokeColor=#990099;" vertex="1" parent="1">
          <mxGeometry x="6809" y="562" width="80" height="30" as="geometry" />
        </mxCell>
        <mxCell id="A6AokKThXicrLh0-pZuk-941" value="0 | 1 | -2" style="whiteSpace=wrap;strokeWidth=2;strokeColor=#0066CC;" vertex="1" parent="1">
          <mxGeometry x="6810" y="670" width="80" height="30" as="geometry" />
        </mxCell>
        <mxCell id="A6AokKThXicrLh0-pZuk-942" value="2 | 11 | -1" style="whiteSpace=wrap;strokeWidth=2;strokeColor=#990099;" vertex="1" parent="1">
          <mxGeometry x="6719" y="562" width="80" height="30" as="geometry" />
        </mxCell>
        <mxCell id="A6AokKThXicrLh0-pZuk-943" value="1 | 110 | 1" style="whiteSpace=wrap;strokeWidth=2;strokeColor=#0066CC;" vertex="1" parent="1">
          <mxGeometry x="6539" y="450" width="80" height="30" as="geometry" />
        </mxCell>
        <mxCell id="A6AokKThXicrLh0-pZuk-944" value="2 | 0 | 0" style="whiteSpace=wrap;strokeWidth=2;strokeColor=#00CC00;" vertex="1" parent="1">
          <mxGeometry x="6719" y="670" width="80" height="30" as="geometry" />
        </mxCell>
        <mxCell id="A6AokKThXicrLh0-pZuk-945" value="0 | 00 | -1" style="whiteSpace=wrap;strokeWidth=2;strokeColor=#990099;" vertex="1" parent="1">
          <mxGeometry x="6629" y="562" width="80" height="30" as="geometry" />
        </mxCell>
        <mxCell id="A6AokKThXicrLh0-pZuk-946" value="1 | 010 | -1" style="whiteSpace=wrap;strokeWidth=2;strokeColor=#0066CC;" vertex="1" parent="1">
          <mxGeometry x="6440" y="450" width="80" height="30" as="geometry" />
        </mxCell>
        <mxCell id="A6AokKThXicrLh0-pZuk-947" value="1 | 011 | 1" style="whiteSpace=wrap;strokeWidth=2;strokeColor=#0066CC;" vertex="1" parent="1">
          <mxGeometry x="6220" y="450" width="80" height="30" as="geometry" />
        </mxCell>
        <mxCell id="A6AokKThXicrLh0-pZuk-948" value="2 | 00 | 1" style="whiteSpace=wrap;strokeWidth=2;strokeColor=#990099;" vertex="1" parent="1">
          <mxGeometry x="6177" y="562" width="80" height="30" as="geometry" />
        </mxCell>
        <mxCell id="A6AokKThXicrLh0-pZuk-949" value="2 | 01 | -1" style="whiteSpace=wrap;strokeWidth=2;strokeColor=#990099;" vertex="1" parent="1">
          <mxGeometry x="6093" y="562" width="80" height="30" as="geometry" />
        </mxCell>
        <mxCell id="A6AokKThXicrLh0-pZuk-950" value="0 | 11 | 1" style="whiteSpace=wrap;strokeWidth=2;strokeColor=#990099;" vertex="1" parent="1">
          <mxGeometry x="6357" y="562" width="80" height="30" as="geometry" />
        </mxCell>
        <mxCell id="A6AokKThXicrLh0-pZuk-951" value="0 | 1 | 0" style="whiteSpace=wrap;strokeWidth=2;strokeColor=#FFFF00;" vertex="1" parent="1">
          <mxGeometry x="6539" y="670" width="80" height="30" as="geometry" />
        </mxCell>
        <mxCell id="A6AokKThXicrLh0-pZuk-952" value="1 | 0100 | 0" style="whiteSpace=wrap;strokeWidth=2;strokeColor=#990099;" vertex="1" parent="1">
          <mxGeometry x="6220" y="340" width="80" height="30" as="geometry" />
        </mxCell>
        <mxCell id="A6AokKThXicrLh0-pZuk-953" value="0 | 00000 | 0" style="whiteSpace=wrap;strokeWidth=2;strokeColor=#0066CC;" vertex="1" parent="1">
          <mxGeometry x="6450" y="260" width="80" height="30" as="geometry" />
        </mxCell>
        <mxCell id="A6AokKThXicrLh0-pZuk-954" value="0 | 01 | -1" style="whiteSpace=wrap;strokeWidth=2;strokeColor=#990099;" vertex="1" parent="1">
          <mxGeometry x="6447" y="562" width="80" height="30" as="geometry" />
        </mxCell>
        <mxCell id="A6AokKThXicrLh0-pZuk-955" value="0 | 01 | 1" style="whiteSpace=wrap;strokeWidth=2;strokeColor=#990099;" vertex="1" parent="1">
          <mxGeometry x="6267" y="562" width="80" height="30" as="geometry" />
        </mxCell>
        <mxCell id="A6AokKThXicrLh0-pZuk-956" value="0 | 0 | 0" style="whiteSpace=wrap;strokeWidth=2;strokeColor=#FFFF00;" vertex="1" parent="1">
          <mxGeometry x="6267" y="670" width="80" height="30" as="geometry" />
        </mxCell>
        <mxCell id="A6AokKThXicrLh0-pZuk-957" value="1 | 1000 | 0" style="whiteSpace=wrap;strokeWidth=2;strokeColor=#990099;" vertex="1" parent="1">
          <mxGeometry x="6810" y="340" width="80" height="30" as="geometry" />
        </mxCell>
        <mxCell id="A6AokKThXicrLh0-pZuk-958" value="" style="startArrow=none;endArrow=block;exitX=0.5;exitY=1;entryX=0.5;entryY=0;rounded=0;exitDx=0;exitDy=0;entryDx=0;entryDy=0;" edge="1" parent="1" source="A6AokKThXicrLh0-pZuk-931" target="A6AokKThXicrLh0-pZuk-936">
          <mxGeometry relative="1" as="geometry" />
        </mxCell>
        <mxCell id="A6AokKThXicrLh0-pZuk-959" value="" style="startArrow=none;endArrow=block;exitX=0.5;exitY=1;entryX=0.5;entryY=0;rounded=0;exitDx=0;exitDy=0;entryDx=0;entryDy=0;" edge="1" parent="1" source="A6AokKThXicrLh0-pZuk-930" target="A6AokKThXicrLh0-pZuk-950">
          <mxGeometry relative="1" as="geometry" />
        </mxCell>
        <mxCell id="A6AokKThXicrLh0-pZuk-960" value="" style="startArrow=none;endArrow=block;exitX=0.5;exitY=1;rounded=0;entryX=0.5;entryY=0;entryDx=0;entryDy=0;strokeColor=#33FFFF;" edge="1" parent="1" source="A6AokKThXicrLh0-pZuk-957" target="A6AokKThXicrLh0-pZuk-930">
          <mxGeometry relative="1" as="geometry">
            <mxPoint x="6430" y="440" as="targetPoint" />
          </mxGeometry>
        </mxCell>
        <mxCell id="A6AokKThXicrLh0-pZuk-961" value="" style="startArrow=none;endArrow=block;exitX=0.5;exitY=1;entryX=0.5;entryY=0;rounded=0;exitDx=0;exitDy=0;entryDx=0;entryDy=0;strokeColor=#FFFF00;" edge="1" parent="1" source="A6AokKThXicrLh0-pZuk-943" target="A6AokKThXicrLh0-pZuk-948">
          <mxGeometry relative="1" as="geometry" />
        </mxCell>
        <mxCell id="A6AokKThXicrLh0-pZuk-962" value="" style="startArrow=none;endArrow=block;exitX=0.5;exitY=1;entryX=0.5;entryY=0;rounded=0;exitDx=0;exitDy=0;entryDx=0;entryDy=0;strokeColor=#00CC00;" edge="1" parent="1" source="A6AokKThXicrLh0-pZuk-933" target="A6AokKThXicrLh0-pZuk-942">
          <mxGeometry relative="1" as="geometry" />
        </mxCell>
        <mxCell id="A6AokKThXicrLh0-pZuk-963" value="" style="startArrow=none;endArrow=block;exitX=0.5;exitY=1;entryX=0.5;entryY=0;rounded=0;exitDx=0;exitDy=0;strokeColor=#FF66FF;" edge="1" parent="1" source="A6AokKThXicrLh0-pZuk-953" target="A6AokKThXicrLh0-pZuk-931">
          <mxGeometry relative="1" as="geometry" />
        </mxCell>
        <mxCell id="A6AokKThXicrLh0-pZuk-964" value="" style="startArrow=none;endArrow=block;rounded=0;exitX=0.5;exitY=1;exitDx=0;exitDy=0;entryX=0.5;entryY=0;entryDx=0;entryDy=0;" edge="1" parent="1" source="A6AokKThXicrLh0-pZuk-943" target="A6AokKThXicrLh0-pZuk-950">
          <mxGeometry relative="1" as="geometry">
            <mxPoint x="6740" y="500" as="sourcePoint" />
            <mxPoint x="6460" y="620" as="targetPoint" />
          </mxGeometry>
        </mxCell>
        <mxCell id="A6AokKThXicrLh0-pZuk-965" value="" style="startArrow=none;endArrow=block;exitX=0.5;exitY=1;entryX=0.5;entryY=0;rounded=0;exitDx=0;exitDy=0;entryDx=0;entryDy=0;strokeColor=#33FFFF;" edge="1" parent="1" source="A6AokKThXicrLh0-pZuk-957" target="A6AokKThXicrLh0-pZuk-943">
          <mxGeometry relative="1" as="geometry" />
        </mxCell>
        <mxCell id="A6AokKThXicrLh0-pZuk-966" value="" style="startArrow=none;endArrow=block;exitX=0.5;exitY=1;entryX=0.5;entryY=0;rounded=0;strokeColor=#33FFFF;" edge="1" parent="1" source="A6AokKThXicrLh0-pZuk-942" target="A6AokKThXicrLh0-pZuk-944">
          <mxGeometry relative="1" as="geometry" />
        </mxCell>
        <mxCell id="A6AokKThXicrLh0-pZuk-967" value="" style="startArrow=none;endArrow=block;exitX=0.5;exitY=1;entryX=0.5;entryY=0;rounded=0;exitDx=0;exitDy=0;strokeColor=#FFFF00;" edge="1" parent="1" source="A6AokKThXicrLh0-pZuk-953" target="A6AokKThXicrLh0-pZuk-927">
          <mxGeometry relative="1" as="geometry" />
        </mxCell>
        <mxCell id="A6AokKThXicrLh0-pZuk-968" value="" style="startArrow=none;endArrow=block;exitX=0.5;exitY=1;entryX=0.5;entryY=0;rounded=0;entryDx=0;entryDy=0;strokeColor=#33FFFF;" edge="1" parent="1" source="A6AokKThXicrLh0-pZuk-935" target="A6AokKThXicrLh0-pZuk-951">
          <mxGeometry relative="1" as="geometry" />
        </mxCell>
        <mxCell id="A6AokKThXicrLh0-pZuk-969" value="" style="startArrow=none;endArrow=block;exitX=0.5;exitY=1;entryX=0.5;entryY=0;rounded=0;exitDx=0;exitDy=0;entryDx=0;entryDy=0;strokeColor=#FFFF00;" edge="1" parent="1" source="A6AokKThXicrLh0-pZuk-947" target="A6AokKThXicrLh0-pZuk-948">
          <mxGeometry relative="1" as="geometry" />
        </mxCell>
        <mxCell id="A6AokKThXicrLh0-pZuk-970" value="" style="startArrow=none;endArrow=block;exitX=0.5;exitY=1;entryX=0.5;entryY=0;rounded=0;exitDx=0;exitDy=0;strokeColor=#FFFF00;" edge="1" parent="1" source="A6AokKThXicrLh0-pZuk-953" target="A6AokKThXicrLh0-pZuk-957">
          <mxGeometry relative="1" as="geometry" />
        </mxCell>
        <mxCell id="A6AokKThXicrLh0-pZuk-971" value="" style="startArrow=none;endArrow=block;exitX=0.5;exitY=1;entryX=0.5;entryY=0;rounded=0;" edge="1" parent="1" source="A6AokKThXicrLh0-pZuk-940" target="A6AokKThXicrLh0-pZuk-941">
          <mxGeometry relative="1" as="geometry" />
        </mxCell>
        <mxCell id="A6AokKThXicrLh0-pZuk-972" value="" style="startArrow=none;endArrow=block;exitX=0.5;exitY=1;entryX=0.5;entryY=0;rounded=0;exitDx=0;exitDy=0;entryDx=0;entryDy=0;" edge="1" parent="1" source="A6AokKThXicrLh0-pZuk-927" target="A6AokKThXicrLh0-pZuk-936">
          <mxGeometry relative="1" as="geometry" />
        </mxCell>
        <mxCell id="A6AokKThXicrLh0-pZuk-973" value="" style="startArrow=none;endArrow=block;exitX=0.5;exitY=1;entryX=0.5;entryY=0;rounded=0;entryDx=0;entryDy=0;strokeColor=#33FFFF;" edge="1" parent="1" source="A6AokKThXicrLh0-pZuk-927" target="A6AokKThXicrLh0-pZuk-943">
          <mxGeometry relative="1" as="geometry" />
        </mxCell>
        <mxCell id="A6AokKThXicrLh0-pZuk-974" value="" style="startArrow=none;endArrow=block;exitX=0.5;exitY=1;entryX=0.5;entryY=0;rounded=0;exitDx=0;exitDy=0;" edge="1" parent="1" source="A6AokKThXicrLh0-pZuk-957" target="A6AokKThXicrLh0-pZuk-939">
          <mxGeometry relative="1" as="geometry" />
        </mxCell>
        <mxCell id="A6AokKThXicrLh0-pZuk-975" value="" style="startArrow=none;endArrow=block;exitX=0.5;exitY=1;rounded=0;exitDx=0;exitDy=0;entryX=0.5;entryY=0;entryDx=0;entryDy=0;" edge="1" parent="1" source="A6AokKThXicrLh0-pZuk-939" target="A6AokKThXicrLh0-pZuk-940">
          <mxGeometry relative="1" as="geometry">
            <mxPoint x="6860" y="500" as="targetPoint" />
          </mxGeometry>
        </mxCell>
        <mxCell id="A6AokKThXicrLh0-pZuk-976" value="" style="startArrow=none;endArrow=block;exitX=0.49;exitY=1;entryX=0.5;entryY=0;rounded=0;strokeColor=#33FFFF;" edge="1" parent="1" source="A6AokKThXicrLh0-pZuk-949" target="A6AokKThXicrLh0-pZuk-929">
          <mxGeometry relative="1" as="geometry" />
        </mxCell>
        <mxCell id="A6AokKThXicrLh0-pZuk-977" value="" style="startArrow=none;endArrow=block;entryX=0.5;entryY=0;rounded=0;exitX=0.5;exitY=1;exitDx=0;exitDy=0;entryDx=0;entryDy=0;" edge="1" parent="1" source="A6AokKThXicrLh0-pZuk-939" target="A6AokKThXicrLh0-pZuk-942">
          <mxGeometry relative="1" as="geometry">
            <mxPoint x="6820" y="510" as="sourcePoint" />
          </mxGeometry>
        </mxCell>
        <mxCell id="A6AokKThXicrLh0-pZuk-978" value="" style="startArrow=none;endArrow=block;exitX=0.5;exitY=1;entryX=0.5;entryY=0;rounded=0;strokeColor=#33FFFF;" edge="1" parent="1" source="A6AokKThXicrLh0-pZuk-934" target="A6AokKThXicrLh0-pZuk-938">
          <mxGeometry relative="1" as="geometry" />
        </mxCell>
        <mxCell id="A6AokKThXicrLh0-pZuk-979" value="" style="startArrow=none;endArrow=block;exitX=0.5;exitY=1;rounded=0;exitDx=0;exitDy=0;entryX=0.5;entryY=0;entryDx=0;entryDy=0;" edge="1" parent="1" source="A6AokKThXicrLh0-pZuk-946" target="A6AokKThXicrLh0-pZuk-945">
          <mxGeometry relative="1" as="geometry">
            <mxPoint x="6600" y="550" as="targetPoint" />
          </mxGeometry>
        </mxCell>
        <mxCell id="A6AokKThXicrLh0-pZuk-980" value="" style="startArrow=none;endArrow=block;exitX=0.5;exitY=1;entryX=0.5;entryY=0;rounded=0;" edge="1" parent="1" source="A6AokKThXicrLh0-pZuk-950" target="A6AokKThXicrLh0-pZuk-937">
          <mxGeometry relative="1" as="geometry" />
        </mxCell>
        <mxCell id="A6AokKThXicrLh0-pZuk-981" value="" style="startArrow=none;endArrow=block;exitX=0.5;exitY=1;entryX=0.5;entryY=0;rounded=0;exitDx=0;exitDy=0;strokeColor=#FFFF00;" edge="1" parent="1" source="A6AokKThXicrLh0-pZuk-953" target="A6AokKThXicrLh0-pZuk-952">
          <mxGeometry relative="1" as="geometry" />
        </mxCell>
        <mxCell id="A6AokKThXicrLh0-pZuk-982" value="" style="startArrow=none;endArrow=block;exitX=0.5;exitY=1;entryX=0.5;entryY=0;rounded=0;exitDx=0;exitDy=0;strokeColor=#00CC00;" edge="1" parent="1" source="A6AokKThXicrLh0-pZuk-936" target="A6AokKThXicrLh0-pZuk-934">
          <mxGeometry relative="1" as="geometry" />
        </mxCell>
        <mxCell id="A6AokKThXicrLh0-pZuk-983" value="" style="startArrow=none;endArrow=block;exitX=0.5;exitY=1;entryX=0.5;entryY=0;rounded=0;strokeColor=#33FFFF;" edge="1" parent="1" source="A6AokKThXicrLh0-pZuk-955" target="A6AokKThXicrLh0-pZuk-956">
          <mxGeometry relative="1" as="geometry" />
        </mxCell>
        <mxCell id="A6AokKThXicrLh0-pZuk-984" value="" style="startArrow=none;endArrow=block;exitX=0.5;exitY=1;entryX=0.5;entryY=0;rounded=0;strokeColor=#33FFFF;" edge="1" parent="1" source="A6AokKThXicrLh0-pZuk-954" target="A6AokKThXicrLh0-pZuk-928">
          <mxGeometry relative="1" as="geometry" />
        </mxCell>
        <mxCell id="A6AokKThXicrLh0-pZuk-985" value="" style="startArrow=none;endArrow=block;exitX=0.5;exitY=1;entryX=0.5;entryY=0;rounded=0;strokeColor=#33FFFF;" edge="1" parent="1" source="A6AokKThXicrLh0-pZuk-948" target="A6AokKThXicrLh0-pZuk-932">
          <mxGeometry relative="1" as="geometry" />
        </mxCell>
        <mxCell id="A6AokKThXicrLh0-pZuk-986" value="" style="startArrow=none;endArrow=block;exitX=0.5;exitY=1;entryX=0.5;entryY=0;rounded=0;exitDx=0;exitDy=0;entryDx=0;entryDy=0;strokeColor=#33FFFF;" edge="1" parent="1" source="A6AokKThXicrLh0-pZuk-952" target="A6AokKThXicrLh0-pZuk-947">
          <mxGeometry relative="1" as="geometry" />
        </mxCell>
        <mxCell id="A6AokKThXicrLh0-pZuk-987" value="" style="startArrow=none;endArrow=block;exitX=0.5;exitY=1;rounded=0;entryX=0.5;entryY=0;entryDx=0;entryDy=0;strokeColor=#FFFF00;" edge="1" parent="1" source="A6AokKThXicrLh0-pZuk-930" target="A6AokKThXicrLh0-pZuk-935">
          <mxGeometry relative="1" as="geometry">
            <mxPoint x="6567" y="550" as="targetPoint" />
          </mxGeometry>
        </mxCell>
        <mxCell id="A6AokKThXicrLh0-pZuk-988" value="" style="startArrow=none;endArrow=block;exitX=0.5;exitY=1;entryX=0.5;entryY=0;rounded=0;exitDx=0;exitDy=0;entryDx=0;entryDy=0;" edge="1" parent="1" source="A6AokKThXicrLh0-pZuk-927" target="A6AokKThXicrLh0-pZuk-933">
          <mxGeometry relative="1" as="geometry" />
        </mxCell>
        <mxCell id="A6AokKThXicrLh0-pZuk-989" value="" style="startArrow=none;endArrow=block;exitX=0.5;exitY=1;entryX=0.5;entryY=0;rounded=0;exitDx=0;exitDy=0;entryDx=0;entryDy=0;" edge="1" parent="1" source="A6AokKThXicrLh0-pZuk-933" target="A6AokKThXicrLh0-pZuk-945">
          <mxGeometry relative="1" as="geometry" />
        </mxCell>
        <mxCell id="A6AokKThXicrLh0-pZuk-990" value="" style="startArrow=none;endArrow=block;exitX=0.5;exitY=1;entryX=0.5;entryY=0;rounded=0;exitDx=0;exitDy=0;entryDx=0;entryDy=0;strokeColor=#FF66FF;" edge="1" parent="1" source="A6AokKThXicrLh0-pZuk-947" target="A6AokKThXicrLh0-pZuk-955">
          <mxGeometry relative="1" as="geometry" />
        </mxCell>
        <mxCell id="A6AokKThXicrLh0-pZuk-991" value="" style="startArrow=none;endArrow=block;exitX=0.5;exitY=1;entryX=0.5;entryY=0;rounded=0;exitDx=0;exitDy=0;entryDx=0;entryDy=0;" edge="1" parent="1" source="A6AokKThXicrLh0-pZuk-952" target="A6AokKThXicrLh0-pZuk-936">
          <mxGeometry relative="1" as="geometry" />
        </mxCell>
        <mxCell id="A6AokKThXicrLh0-pZuk-992" value="" style="startArrow=none;endArrow=block;exitX=0.5;exitY=1;entryX=0.5;entryY=0;rounded=0;exitDx=0;exitDy=0;entryDx=0;entryDy=0;" edge="1" parent="1" source="A6AokKThXicrLh0-pZuk-952" target="A6AokKThXicrLh0-pZuk-946">
          <mxGeometry relative="1" as="geometry" />
        </mxCell>
        <mxCell id="A6AokKThXicrLh0-pZuk-993" value="" style="startArrow=none;endArrow=block;exitX=0.5;exitY=1;entryX=0.5;entryY=0;rounded=0;exitDx=0;exitDy=0;entryDx=0;entryDy=0;strokeColor=#33FFFF;" edge="1" parent="1" source="A6AokKThXicrLh0-pZuk-931" target="A6AokKThXicrLh0-pZuk-947">
          <mxGeometry relative="1" as="geometry" />
        </mxCell>
        <mxCell id="A6AokKThXicrLh0-pZuk-994" value="" style="startArrow=none;endArrow=block;exitX=0.5;exitY=1;entryX=0.5;entryY=0;rounded=0;exitDx=0;exitDy=0;entryDx=0;entryDy=0;strokeColor=#00CC00;" edge="1" parent="1" source="A6AokKThXicrLh0-pZuk-936" target="A6AokKThXicrLh0-pZuk-949">
          <mxGeometry relative="1" as="geometry" />
        </mxCell>
        <mxCell id="A6AokKThXicrLh0-pZuk-995" value="" style="startArrow=none;endArrow=block;exitX=0.5;exitY=1;entryX=0.5;entryY=0;rounded=0;exitDx=0;exitDy=0;entryDx=0;entryDy=0;strokeColor=#00CC00;" edge="1" parent="1" source="A6AokKThXicrLh0-pZuk-946" target="A6AokKThXicrLh0-pZuk-954">
          <mxGeometry relative="1" as="geometry" />
        </mxCell>
        <mxCell id="A6AokKThXicrLh0-pZuk-996" value="" style="startArrow=none;endArrow=block;exitX=0.5;exitY=1;entryX=0.5;entryY=0;rounded=0;exitDx=0;exitDy=0;entryDx=0;entryDy=0;strokeColor=#33FFFF;" edge="1" parent="1" source="A6AokKThXicrLh0-pZuk-931" target="A6AokKThXicrLh0-pZuk-930">
          <mxGeometry relative="1" as="geometry" />
        </mxCell>
        <mxCell id="A6AokKThXicrLh0-pZuk-997" value="" style="startArrow=none;endArrow=block;exitX=0.5;exitY=1;entryX=0.5;entryY=0;rounded=0;entryDx=0;entryDy=0;strokeColor=#33FFFF;" edge="1" parent="1" source="A6AokKThXicrLh0-pZuk-945" target="A6AokKThXicrLh0-pZuk-951">
          <mxGeometry relative="1" as="geometry" />
        </mxCell>
      </root>
    </mxGraphModel>
  </diagram>
</mxfile>
